<svg version="1.1" xmlns="http://www.w3.org/2000/svg" viewBox="0 0 968.3333333333333 447.2986300647258" width="1936.6666666666665" height="894.5972601294516">
  <!-- svg-source:excalidraw -->
  <rect x="0" y="0" width="968.3333333333333" height="447.2986300647258" fill="#ffffff"></rect>
  <g stroke-linecap="round" transform="translate(306.66666666666674 162.9652967313923) rotate(0 38.333333333333314 40)">
    <path d="M56.15 3.17 C62.91 6.01, 69.28 14.42, 72.76 21.65 C76.24 28.89, 78.13 38.81, 77.04 46.56 C75.94 54.32, 71.48 62.86, 66.17 68.19 C60.86 73.53, 52.68 77.44, 45.16 78.57 C37.64 79.69, 27.98 78.41, 21.04 74.93 C14.1 71.46, 6.81 64.5, 3.51 57.71 C0.22 50.91, -0.02 41.76, 1.27 34.17 C2.56 26.58, 6.16 17.73, 11.27 12.15 C16.37 6.58, 23.83 1.56, 31.9 0.73 C39.98 -0.09, 54.54 5.76, 59.7 7.21 C64.86 8.66, 63.27 9.06, 62.88 9.43 M20.52 5.49 C26.91 1.51, 38.36 -0.44, 45.99 0.52 C53.62 1.49, 61.1 5.75, 66.3 11.29 C71.51 16.84, 76.09 26.06, 77.23 33.81 C78.38 41.55, 76.88 50.82, 73.17 57.76 C69.47 64.7, 61.72 71.91, 55.01 75.44 C48.29 78.96, 40.04 80.11, 32.89 78.9 C25.73 77.68, 17.74 73.76, 12.07 68.14 C6.4 62.53, 0.22 53.05, -1.14 45.2 C-2.49 37.35, -0.06 28.06, 3.93 21.04 C7.92 14.02, 19.95 6.01, 22.82 3.09 C25.68 0.17, 20.98 2.91, 21.11 3.51" stroke="none" stroke-width="0" fill="#ced4da"></path>
    <path d="M24.71 2.01 C31.27 -0.73, 42.6 -0.05, 49.92 2.39 C57.24 4.84, 64.28 10.52, 68.64 16.68 C73 22.84, 75.9 31.68, 76.09 39.35 C76.28 47.01, 74.07 56.16, 69.76 62.68 C65.45 69.2, 57.2 75.97, 50.25 78.48 C43.3 80.98, 35 80.29, 28.04 77.73 C21.08 75.17, 13.15 69.19, 8.47 63.12 C3.8 57.05, 0.22 48.98, -0.02 41.3 C-0.26 33.63, 1.1 23.92, 7.03 17.08 C12.97 10.24, 29.42 2.81, 35.57 0.24 C41.72 -2.32, 43.88 0.98, 43.96 1.68 M53.3 3.17 C60.11 5.73, 68.51 13.5, 72.55 20.29 C76.59 27.09, 78.63 36.31, 77.53 43.94 C76.44 51.57, 71.31 60.19, 65.98 66.08 C60.64 71.97, 52.57 77.52, 45.51 79.29 C38.46 81.06, 30.37 80.01, 23.63 76.71 C16.89 73.4, 8.88 66.25, 5.05 59.45 C1.22 52.65, -0.22 43.66, 0.64 35.9 C1.5 28.14, 5.12 18.75, 10.19 12.9 C15.27 7.04, 23.83 2.34, 31.09 0.78 C38.34 -0.78, 49.83 2.95, 53.73 3.56 C57.63 4.17, 54.95 3.84, 54.46 4.46" stroke="#1864ab" stroke-width="1" fill="none"></path>
  </g>
  <g stroke-linecap="round" transform="translate(219.99999999999977 74.63196339805904) rotate(0 125.83333333333331 135)">
    <path d="M39.37 34.63 C48.05 23.41, 63.36 15.64, 76.28 10.21 C89.19 4.79, 102.47 2.83, 116.85 2.09 C131.22 1.36, 148.8 2.03, 162.52 5.8 C176.24 9.58, 188.06 15.93, 199.15 24.76 C210.25 33.59, 221.09 46.1, 229.11 58.81 C237.14 71.51, 243.3 86.37, 247.3 101.01 C251.3 115.64, 254.63 131.1, 253.09 146.62 C251.55 162.15, 244.65 180.18, 238.05 194.18 C231.45 208.18, 223.53 220.24, 213.5 230.61 C203.47 240.98, 190.15 249.73, 177.87 256.38 C165.59 263.03, 153.92 268.67, 139.82 270.52 C125.72 272.36, 107.18 271.59, 93.27 267.46 C79.36 263.33, 67.52 254.25, 56.35 245.76 C45.18 237.27, 34.61 228.87, 26.25 216.5 C17.9 204.13, 10.5 186.37, 6.23 171.56 C1.95 156.75, -0.03 142.54, 0.62 127.66 C1.28 112.78, 4.37 96.63, 10.14 82.28 C15.92 67.93, 27.92 51.1, 35.26 41.54 C42.6 31.99, 48.64 29.1, 54.2 24.93 C59.77 20.76, 67.59 14.66, 68.63 16.53" stroke="#087f5b" stroke-width="4.5" fill="none" stroke-dasharray="8 12"></path>
  </g>
  <g stroke-linecap="round">
    <g transform="translate(73.12166485091035 10.649315032362892) rotate(0 95.50523739633937 74.33189489746621)">
      <path d="M-0.21 -0.65 C31.76 23.91, 160.96 123.13, 192.79 148.19 M-1.78 1.62 C30.03 26.24, 159.85 124.96, 192.32 149.31" stroke="#862e9c" stroke-width="4" fill="none"></path>
    </g>
    <g transform="translate(73.12166485091035 10.649315032362892) rotate(0 95.50523739633937 74.33189489746621)">
      <path d="M162.57 142.02 C173.24 142.01, 186.61 146.64, 190.55 151.18 M164.48 140.75 C173.97 142.88, 184.56 146.84, 192.74 148.75" stroke="#862e9c" stroke-width="4" fill="none"></path>
    </g>
    <g transform="translate(73.12166485091035 10.649315032362892) rotate(0 95.50523739633937 74.33189489746621)">
      <path d="M174.95 125.65 C181.05 131.81, 189.74 142.63, 190.55 151.18 M176.86 124.38 C181.89 132.51, 188.03 142.36, 192.74 148.75" stroke="#862e9c" stroke-width="4" fill="none"></path>
    </g>
  </g>
  <g stroke-linecap="round">
    <g transform="translate(408.33333333333326 172.96529673139207) rotate(0 183.0653662735612 -47.9757466653532)">
      <path d="M0.96 0.57 C61.68 -15.68, 303.3 -80.44, 363.87 -96.52 M0 -0.17 C61.14 -16.35, 305.56 -79.55, 366.13 -95.28" stroke="#c92a2a" stroke-width="4" fill="none"></path>
    </g>
    <g transform="translate(408.33333333333326 172.96529673139207) rotate(0 183.0653662735612 -47.9757466653532)">
      <path d="M342.37 -79.71 C346.8 -83.46, 354.28 -86.78, 365.52 -94.53 M341.07 -78.64 C348.49 -83.9, 356.77 -88.49, 366.37 -95.48" stroke="#c92a2a" stroke-width="4" fill="none"></path>
    </g>
    <g transform="translate(408.33333333333326 172.96529673139207) rotate(0 183.0653662735612 -47.9757466653532)">
      <path d="M337.22 -99.57 C343.16 -98.18, 351.97 -96.32, 365.52 -94.53 M335.93 -98.5 C344.97 -97.84, 354.8 -96.47, 366.37 -95.48" stroke="#c92a2a" stroke-width="4" fill="none"></path>
    </g>
  </g>
  <g stroke-linecap="round">
    <g transform="translate(718.6746719787025 234.61856127797046) rotate(180 -152.57641946091803 -17.7439211406828)">
      <path d="M-0.02 -1.04 C-50.59 -7.22, -253.57 -30.82, -304.58 -36.51 M-1.5 1.02 C-52.05 -5.04, -254.78 -28.9, -305.13 -35.26" stroke="#c92a2a" stroke-width="4" fill="none"></path>
    </g>
    <g transform="translate(718.6746719787025 234.61856127797046) rotate(180 -152.57641946091803 -17.7439211406828)">
      <path d="M-277.65 -40.79 C-282.71 -41.95, -286.45 -37.67, -304.69 -35.99 M-275.39 -41.53 C-282.83 -40.04, -289.24 -39.17, -305.14 -34.47" stroke="#c92a2a" stroke-width="4" fill="none"></path>
    </g>
    <g transform="translate(718.6746719787025 234.61856127797046) rotate(180 -152.57641946091803 -17.7439211406828)">
      <path d="M-280.12 -20.41 C-284.78 -25.7, -288.01 -25.55, -304.69 -35.99 M-277.87 -21.16 C-284.79 -24.26, -290.65 -28, -305.14 -34.47" stroke="#c92a2a" stroke-width="4" fill="none"></path>
    </g>
  </g>
  <g stroke-linecap="round">
    <g transform="translate(304.58120518646456 228.94396812270838) rotate(0 46.26509082167735 20.20691446817432)">
      <path d="M0.34 1.12 C-3.44 9.99, -40.82 46.28, -21.57 53.97 C-2.33 61.67, 97.2 59.28, 115.82 47.29 C134.44 35.3, 94.42 -6.94, 90.14 -17.98 M-0.94 0.67 C-5 9.13, -41.98 44.3, -22.61 52.28 C-3.24 60.27, 96.45 60.06, 115.27 48.57 C134.09 37.09, 94.75 -5.4, 90.3 -16.63" stroke="#e67700" stroke-width="4" fill="none"></path>
    </g>
    <g transform="translate(304.58120518646456 228.94396812270838) rotate(0 46.26509082167735 20.20691446817432)">
      <path d="M116.1 1.19 C106.07 -4.91, 95.17 -12.98, 91.09 -16.9 M114.01 0.61 C108.49 -3.2, 100.86 -8.23, 89.64 -15.95" stroke="#e67700" stroke-width="4" fill="none"></path>
    </g>
    <g transform="translate(304.58120518646456 228.94396812270838) rotate(0 46.26509082167735 20.20691446817432)">
      <path d="M98.87 12.34 C95.54 1.8, 91.43 -10.66, 91.09 -16.9 M96.78 11.76 C95.62 5.22, 92.42 -2.68, 89.64 -15.95" stroke="#e67700" stroke-width="4" fill="none"></path>
    </g>
  </g>
  <g transform="translate(10 80.63196339805904) rotate(0 65.5 17.5)">
    <text x="0" y="28" font-family="monospace" font-size="28px" fill="#862e9c" text-anchor="start" style="white-space: pre;" direction="ltr">je subis</text>
  </g>
  <g transform="translate(275.0000000000001 38.9652967313923) rotate(0 76 12.5)">
    <text x="0" y="20" font-family="monospace" font-size="20px" fill="#087f5b" text-anchor="start" style="white-space: pre;" direction="ltr">(mes limites)</text>
  </g>
  <g transform="translate(268.3333333333335 297.2986300647258) rotate(0 156 70)">
    <text x="0" y="28" font-family="monospace" font-size="28px" fill="#e67700" text-anchor="start" style="white-space: pre;" direction="ltr">je rumine,</text>
    <text x="0" y="63" font-family="monospace" font-size="28px" fill="#e67700" text-anchor="start" style="white-space: pre;" direction="ltr">je contiens</text>
    <text x="0" y="98" font-family="monospace" font-size="28px" fill="#e67700" text-anchor="start" style="white-space: pre;" direction="ltr">je vis une tension,</text>
    <text x="0" y="133" font-family="monospace" font-size="28px" fill="#e67700" text-anchor="start" style="white-space: pre;" direction="ltr">je m'inflige</text>
  </g>
  <g transform="translate(663.3333333333333 103.9652967313923) rotate(0 147.5 52.5)">
    <text x="0" y="28" font-family="monospace" font-size="28px" fill="#c92a2a" text-anchor="start" style="white-space: pre;" direction="ltr">je rejaillis,</text>
    <text x="0" y="63" font-family="monospace" font-size="28px" fill="#c92a2a" text-anchor="start" style="white-space: pre;" direction="ltr">je me décharge,</text>
    <text x="0" y="98" font-family="monospace" font-size="28px" fill="#c92a2a" text-anchor="start" style="white-space: pre;" direction="ltr">je me défoule sur…</text>
  </g>
</svg>
