<svg fill-rule="evenodd" preserveAspectRatio="xMidYMid" stroke-linejoin="round" stroke-width="28.222" viewBox="0 0 12500 22000" xmlns="http://www.w3.org/2000/svg" xmlns:xlink="http://www.w3.org/1999/xlink"><clipPath id="a"><path d="m0 0h12500v22000h-12500z"/></clipPath><g clip-path="url(#a)"><path d="m0 22000c0-7333 0-14667 0-22000h12500v22000c-4167 0-8333 0-12500 0z" fill="#c6c4ff"/><path d="m0 22000c0-7333 0-14667 0-22000h12500v22000c-4167 0-8333 0-12500 0z" fill="none" stroke="#000" stroke-linejoin="round" stroke-width="50"/><path d="m561 1359h138v-226h146c52-1 94-11 126-30s56-44 70-74c15-31 22-63 22-98s-7-67-22-98c-14-30-38-55-70-74s-74-29-126-30h-284zm138-522h108c33-1 62 4 85 17 24 12 36 38 37 77-1 39-13 65-37 77-23 13-52 18-85 17h-108z"/><path d="m1149 1359h130c0-141 0-281 0-422h2c87 141 174 281 261 422h139c0-210 0-420 0-630-43 0-87 0-130 0v423s-1 0-2 0c-87-141-175-282-262-423-46 0-92 0-138 0z"/><path d="m2270 1359h88v-340h-264v103h139c-4 44-19 78-44 101-26 23-61 35-106 35-41-1-74-11-100-31-25-21-43-47-54-79-12-32-17-66-17-101 0-38 5-73 17-106 11-32 29-59 54-79 26-21 59-31 100-32 33 0 62 9 85 27 24 18 40 44 48 79h132c-5-48-21-88-47-121-25-33-57-58-95-75s-79-26-123-26c-65 1-121 16-167 45s-81 68-105 118-37 107-37 170c0 61 13 116 37 165 24 50 59 89 105 118 46 28 102 43 167 44 31 0 61-6 91-20 30-13 57-35 82-66z"/><path d="m1000 3000c0-333 0-667 0-1000h10500v1000c-3500 0-7000 0-10500 0z" fill="#e1e0ff"/><path d="m1000 3000c0-333 0-667 0-1000h10500v1000c-3500 0-7000 0-10500 0z" fill="none" stroke="#000" stroke-linejoin="round" stroke-width="50"/><path d="m1342 2704h48c0-105 0-210 0-314h1c39 104 79 209 118 314h43c39-105 79-210 118-315h1v315h48c0-126 0-252 0-378-23 0-46 0-69 0-40 106-80 212-120 318-39-106-79-212-119-318-23 0-46 0-69 0z"/><path d="m1964 2609c0 13-6 26-19 40-14 13-35 20-64 21-15 0-27-3-37-9s-16-16-16-31c0-16 6-28 16-35 11-7 24-11 39-14l45-6c15-2 27-6 36-12zm73 59c-3 1-5 1-8 2-2 0-4 0-6 0-7 0-11-2-12-7-2-5-2-13-2-23v-140c-1-31-12-51-33-61s-44-15-69-14c-32 0-58 7-80 21s-34 37-36 71h45c1-20 8-34 21-41 12-8 28-12 47-11 15-1 29 2 41 8s19 18 20 37c-1 16-10 26-28 30-17 3-39 7-64 11-24 2-46 9-64 20-18 12-28 32-29 62 1 27 10 47 27 59s38 18 64 18c19 0 36-4 53-10 16-7 30-18 43-32 0 14 3 25 10 32s16 10 28 10c7 0 13-1 18-2s10-3 14-6z"/><path d="m2189 2667c-29-1-49-12-61-33-11-21-17-45-16-70 0-27 6-50 19-69s33-29 62-30c28 1 48 11 60 31 12 19 18 41 18 66 0 27-6 51-19 72-12 21-33 32-63 33zm126-236h-42v40c-9-15-20-27-35-34-14-8-30-12-47-12-32 1-57 8-75 23-19 15-32 33-40 55s-12 44-12 66c0 38 10 70 31 97 20 26 51 40 92 41 17 0 34-4 50-13 15-8 27-20 35-37h1v18c0 31-6 56-19 75s-34 29-63 29c-16 0-31-3-46-10s-23-18-25-35h-45c3 30 16 51 38 63 23 12 48 18 75 18 43 0 75-11 96-34 21-22 31-56 31-101z"/><path d="m2386 2704h45c0-91 0-182 0-273-15 0-30 0-45 0zm45-378c-15 0-30 0-45 0v55h45c0-18 0-37 0-55z"/><path d="m2734 2519c-4-32-16-56-38-71-21-15-48-23-80-23-43 1-75 15-97 43-21 27-32 61-32 103 0 41 11 74 33 100 22 25 53 38 95 39 35 0 62-10 83-28 20-19 33-45 38-78h-46c-3 21-11 37-24 48-12 12-30 18-51 18-29-1-49-11-62-31-12-19-18-42-18-68-1-29 5-53 18-74 13-20 35-31 67-32 19 0 34 5 45 14 12 9 19 23 23 40z"/><path d="m2934 2704h45v-154c0-25 7-45 20-61s34-24 61-24c17 0 30 5 40 15s15 23 15 40v184h45v-179c1-30-6-54-20-72s-39-27-74-28c-20 0-37 4-52 12s-27 21-37 38h-1v-44h-42z"/><path d="m3457 2431h-45v154c0 25-7 45-20 61s-34 24-61 24c-17 0-30-5-40-15s-15-23-15-40v-184h-45v179c-1 30 6 54 20 72s39 27 74 28c20 0 37-4 52-12s27-21 37-38h1v44h42z"/><path d="m3527 2704h45v-170c0-12 5-26 16-42 12-17 30-26 57-27 20 0 33 6 40 17 8 11 11 25 11 43v179h45v-170c0-21 7-38 19-50 13-13 30-19 52-19s36 6 43 17c7 12 11 26 10 43v179h45v-200c0-28-9-48-25-60-16-13-38-19-66-19-18 0-34 4-49 13-15 8-27 19-36 34-6-17-16-29-30-36-13-7-28-11-45-11-19 0-36 4-51 12s-28 19-38 35h-1v-41h-42z"/><path d="m4193 2565c1 28-5 52-18 73-12 20-34 31-64 32-31-1-53-11-67-31-13-20-20-44-20-72 0-26 6-50 20-70 13-20 34-31 64-32 29 1 51 11 65 31 13 20 20 43 20 69zm-212 139h45v-37h1c11 16 25 27 41 34 17 6 33 9 48 9 42-1 73-15 94-42 20-27 31-60 31-100 0-39-11-73-32-100s-52-42-94-43c-20 0-37 4-53 11-15 7-27 18-35 33h-1v-143h-45z"/><path d="m4482 2617c-4 18-12 31-24 40-13 9-28 13-47 13-30-1-52-10-66-27s-20-38-19-62h205c1-23-2-46-10-70-7-24-20-44-38-60-19-17-44-25-76-26-38 1-69 14-92 40-24 26-36 60-37 102 1 42 13 76 34 102 21 27 54 40 98 41 31 0 56-8 77-24 20-16 33-39 40-69zm-156-76c2-21 9-39 23-53 13-15 32-23 55-23s41 8 56 22c14 14 22 32 23 54z"/><path d="m4575 2704h45v-121c0-35 7-62 22-81s41-29 77-29v-48c-24-1-44 4-61 15-16 11-29 27-40 49h-1v-58h-42z"/><path d="m1000 6000c0-833 0-1667 0-2500h10500v2500c-3500 0-7000 0-10500 0z" fill="#e1e0ff"/><path d="m1000 6000c0-833 0-1667 0-2500h10500v2500c-3500 0-7000 0-10500 0z" fill="none" stroke="#000" stroke-linejoin="round" stroke-width="50"/><path d="m1344 4204h50c0-126 0-252 0-378-17 0-33 0-50 0z"/><path d="m1476 4204h50c0-58 0-115 0-173h200v173h50c0-126 0-252 0-378-17 0-33 0-50 0v163c-67 0-133 0-200 0 0-54 0-109 0-163-17 0-33 0-50 0z"/><path d="m1857 4204h130c62 0 108-18 138-51 29-34 43-83 43-147 0-61-16-106-47-136-31-29-76-44-134-44h-130zm50-336h85c46 0 78 13 98 39 19 25 29 60 28 106s-9 79-25 101c-16 21-34 35-54 40-20 6-36 9-48 8h-84z"/><path d="m2280 4000v-132h125c24 0 41 6 52 18s16 28 16 47c-1 27-9 45-26 54s-37 14-62 13zm-50 204h50v-162h123c24 0 40 7 48 20s13 29 15 48c3 20 5 38 4 55 0 18 4 31 10 39h56c-10-13-16-30-18-48-2-19-3-38-4-57s-6-35-13-49c-8-15-22-24-44-28v-2c23-6 40-18 50-35 11-17 16-37 16-60 0-31-11-55-31-72-20-18-48-27-84-27h-178z"/><path d="m1000 19750c0-4417 0-8833 0-13250h10500v13250c-3500 0-7000 0-10500 0z" fill="#e1e0ff"/><path d="m1000 19750c0-4417 0-8833 0-13250h10500v13250c-3500 0-7000 0-10500 0z" fill="none" stroke="#000" stroke-linejoin="round" stroke-width="50"/><path d="m1344 7204h50c0-126 0-252 0-378-17 0-33 0-50 0z"/><path d="m1476 7204h130c62 0 108-18 138-51 29-34 43-83 43-147 0-61-16-106-47-136-31-29-76-44-134-44h-130zm50-336h85c46 0 78 13 98 39 19 25 29 60 28 106s-9 79-25 101c-16 21-34 35-54 40-20 6-36 9-48 8h-84z"/><path d="m1804 7204h52l42-114h160c14 38 28 76 41 114h56c-49-126-99-252-148-378-18 0-37 0-55 0-49 126-99 252-148 378zm174-332h1c21 58 42 117 63 176-42 0-85 0-128 0 22-59 43-118 64-176z"/><path d="m2227 7204h50c0-112 0-224 0-336h126c0-14 0-28 0-42-101 0-201 0-302 0v42h126z"/><path d="m1000 21250c0-333 0-667 0-1000h10500v1000c-3500 0-7000 0-10500 0z" fill="#e1e0ff"/><path d="m1000 21250c0-333 0-667 0-1000h10500v1000c-3500 0-7000 0-10500 0z" fill="none" stroke="#000" stroke-linejoin="round" stroke-width="50"/><path d="m1344 20954h50c0-126 0-252 0-378-17 0-33 0-50 0z"/><path d="m1476 20954h262c0-14 0-28 0-42-71 0-141 0-212 0 0-44 0-87 0-131h196c0-14 0-28 0-42-65 0-131 0-196 0 0-40 0-81 0-121h210c0-14 0-28 0-42-86 0-173 0-260 0z"/><path d="m1798 20954h48c0-101 0-202 0-303h1c66 101 131 202 197 303h55c0-126 0-252 0-378-16 0-32 0-48 0v306h-1c-66-102-132-204-198-306-18 0-36 0-54 0z"/><path d="m2179 20954h130c62 0 108-18 138-51 29-34 43-83 43-147 0-61-16-106-47-136-31-29-76-44-134-44h-130zm50-336h85c46 0 78 13 98 39 19 25 29 60 28 106s-9 79-25 101c-16 21-34 35-54 40-20 6-36 9-48 8h-84z"/><path d="m1500 19250c0-3917 0-7833 0-11750h9500v11750c-3167 0-6333 0-9500 0z" fill="#fffdbd"/><path d="m1500 19250c0-3917 0-7833 0-11750h9500v11750c-3167 0-6333 0-9500 0z" fill="none" stroke="#000" stroke-linejoin="round" stroke-width="50"/><path d="m1811 8204h231c0-13 0-27 0-40-58 0-117 0-175 0 56-67 112-135 168-202 0-10 0-21 0-31-71 0-142 0-213 0v40h155c-55 66-110 132-165 198-1 12-1 23-1 35z"/><path d="m2090 8204h45c0-126 0-252 0-378-15 0-30 0-45 0z"/><path d="m2209 8204h45c0-91 0-182 0-273-15 0-30 0-45 0zm45-378c-15 0-30 0-45 0v55h45c0-18 0-37 0-55z"/><path d="m2538 8065c1 28-5 52-18 73-12 20-34 31-64 32-31-1-53-11-67-31-13-20-20-44-20-72 0-26 6-50 20-70 13-20 34-31 64-32 29 1 51 11 65 31 13 20 20 43 20 69zm-212 139h45v-37h1c11 16 25 27 41 34 17 6 33 9 48 9 42-1 73-15 94-42 20-27 31-60 31-100 0-39-11-73-32-100s-52-42-94-43c-20 0-37 4-53 11-15 7-27 18-35 33h-1v-143h-45z"/><path d="m1750 9500c0-333 0-667 0-1000h9000v1000c-3000 0-6000 0-9000 0z" fill="#fffdbd"/><path d="m1750 9500c0-333 0-667 0-1000h9000v1000c-3000 0-6000 0-9000 0z" fill="none" stroke="#000" stroke-linejoin="round" stroke-width="50"/><path d="m2091 9204h50c0-58 0-115 0-173h200v173h50c0-126 0-252 0-378-17 0-33 0-50 0v163c-67 0-133 0-200 0 0-54 0-109 0-163-17 0-33 0-50 0z"/><path d="m2654 9117c-4 18-12 31-24 40-13 9-28 13-47 13-30-1-52-10-66-27s-20-38-19-62h205c1-23-2-46-10-70-7-24-20-44-38-60-19-17-44-25-76-26-38 1-69 14-92 40-24 26-36 60-37 102 1 42 13 76 34 102 21 27 54 40 98 41 31 0 56-8 77-24 20-16 33-39 40-69zm-156-76c2-21 9-39 23-53 13-15 32-23 55-23s41 8 56 22c14 14 22 32 23 54z"/><path d="m2918 9109c0 13-6 26-19 40-14 13-35 20-64 21-15 0-27-3-37-9s-16-16-16-31c0-16 6-28 16-35 11-7 24-11 39-14l45-6c15-2 27-6 36-12zm73 59c-3 1-5 1-8 2-2 0-4 0-6 0-7 0-11-2-12-7-2-5-2-13-2-23v-140c-1-31-12-51-33-61s-44-15-69-14c-32 0-58 7-80 21s-34 37-36 71h45c1-20 8-34 21-41 12-8 28-12 47-11 15-1 29 2 41 8s19 18 20 37c-1 16-10 26-28 30-17 3-39 7-64 11-24 2-46 9-64 20-18 12-28 32-29 62 1 27 10 47 27 59s38 18 64 18c19 0 36-4 53-10 16-7 30-18 43-32 0 14 3 25 10 32s16 10 28 10c7 0 13-1 18-2s10-3 14-6z"/><path d="m3276 8826h-45v142h-1c-11-16-24-27-41-34-17-6-32-9-47-9-42 1-73 15-94 42-20 27-31 60-31 100 0 39 11 73 32 100s52 42 94 43c19 0 36-4 52-11s27-18 35-33h1v38h45zm-211 244c-1-28 5-52 18-73 12-20 33-31 64-32 30 1 52 11 66 31 13 20 20 44 20 72 0 26-6 50-19 70-14 20-35 31-65 32-29-1-50-11-64-31-13-20-20-43-20-69z"/><path d="m3535 9117c-4 18-12 31-24 40-13 9-28 13-47 13-30-1-52-10-66-27s-20-38-19-62h205c1-23-2-46-10-70-7-24-20-44-38-60-19-17-44-25-76-26-38 1-69 14-92 40-24 26-36 60-37 102 1 42 13 76 34 102 22 27 54 40 98 41 31 0 56-8 77-24 20-16 33-39 40-69zm-156-76c2-21 9-39 23-53 13-15 32-23 55-23s41 8 56 22c14 14 22 32 23 54z"/><path d="m3627 9204h45v-121c0-35 7-62 22-81s41-29 77-29v-48c-24-1-44 4-61 15-16 11-29 27-40 49h-1v-58h-42z"/><path d="m1750 19000c0-3083 0-6167 0-9250h9000v9250c-3000 0-6000 0-9000 0z" fill="#ffdb9c"/><path d="m1750 19000c0-3083 0-6167 0-9250h9000v9250c-3000 0-6000 0-9000 0z" fill="none" stroke="#000" stroke-linejoin="round" stroke-width="50"/><path d="m2091 10454h130c62 0 108-18 138-51 29-34 43-83 43-147 0-61-16-106-47-136-31-29-76-44-134-44h-130zm50-336h85c46 0 78 13 98 39 19 25 29 60 28 106s-9 79-25 101c-16 21-34 35-54 40-20 6-36 9-48 8h-84z"/><path d="m2464 10454h262c0-14 0-28 0-42-71 0-141 0-212 0 0-44 0-87 0-131h196c0-14 0-28 0-42-65 0-131 0-196 0 0-40 0-81 0-121h210c0-14 0-28 0-42-86 0-173 0-260 0z"/><path d="m2785 10454h50c0-58 0-115 0-173h173c0-14 0-28 0-42-57 0-115 0-173 0 0-40 0-81 0-121h198c0-14 0-28 0-42-83 0-165 0-248 0z"/><path d="m3090 10454h250c0-14 0-28 0-42-67 0-133 0-200 0 0-112 0-224 0-336-17 0-33 0-50 0z"/><path d="m3341 10454h52c14-38 28-76 42-114h160c14 38 28 76 41 114h56c-49-126-99-252-148-378-18 0-37 0-55 0-49 126-99 252-148 378zm174-332h1c21 58 42 117 63 176-42 0-85 0-128 0 22-59 43-118 64-176z"/><path d="m3765 10454h50c0-112 0-224 0-336h126c0-14 0-28 0-42-101 0-201 0-302 0v42h126z"/><path d="m3983 10454h262c0-14 0-28 0-42-71 0-141 0-212 0 0-44 0-87 0-131h196c0-14 0-28 0-42-65 0-131 0-196 0 0-40 0-81 0-121h210c0-14 0-28 0-42-86 0-173 0-260 0z"/><path d="m2000 13250c0-833 0-1667 0-2500h8500v2500c-2833 0-5667 0-8500 0z" fill="#ffdb9c"/><path d="m2000 13250c0-833 0-1667 0-2500h8500v2500c-2833 0-5667 0-8500 0z" fill="none" stroke="#000" stroke-linejoin="round" stroke-width="50"/><path d="m2391 11281h115c22-1 41 4 57 13s24 26 25 50c0 21-7 38-19 50-13 12-30 18-52 18h-126zm-50 173h182c38-1 67-12 86-33s29-46 29-75c0-24-6-44-18-60-13-16-30-26-54-31v-1c18-7 32-18 42-33 10-14 15-32 15-52 0-19-5-35-13-48-8-14-19-24-31-31s-28-11-46-12c-19-2-37-2-55-2h-137zm50-336h101c23-1 42 3 57 10 15 8 23 25 24 50 0 20-6 35-19 46-13 10-33 15-62 15h-101z"/><path d="m2700 11454h45c0-126 0-252 0-378-15 0-30 0-45 0z"/><path d="m2802 11318c0 40 12 74 34 101 23 26 56 40 99 41 43-1 76-15 99-41 22-27 34-61 34-101 0-41-12-75-34-101-23-27-56-41-99-42-43 1-76 15-99 42-22 26-34 60-34 101zm48 0c0-33 9-59 25-77 16-17 36-26 60-26s44 9 60 26c16 18 25 44 25 77s-9 58-25 76c-16 17-36 26-60 26s-44-9-60-26c-16-18-25-43-25-76z"/><path d="m3353 11269c-4-32-16-56-38-71-21-15-48-23-80-23-43 1-75 15-97 43-21 27-32 61-32 103 0 41 11 74 33 100 22 25 53 38 95 39 35 0 62-10 83-28 20-19 33-45 38-78h-46c-3 21-11 37-24 48-12 12-30 18-51 18-29-1-49-11-62-31-12-19-18-42-18-68-1-29 5-53 18-74 13-20 35-31 67-32 19 0 34 5 45 14 12 9 19 23 23 40z"/><path d="m3407 11454h45c0-35 0-69 0-104l42-39c31 48 63 95 94 143h57c-39-58-78-116-116-174l108-99c-20 0-40 0-60 0-42 40-83 79-125 119 0-75 0-149 0-224-15 0-30 0-45 0z"/><path d="m2000 16000c0-833 0-1667 0-2500h8500v2500c-2833 0-5667 0-8500 0z" fill="#ffdb9c"/><path d="m2000 16000c0-833 0-1667 0-2500h8500v2500c-2833 0-5667 0-8500 0z" fill="none" stroke="#000" stroke-linejoin="round" stroke-width="50"/><path d="m2391 14031h115c22-1 41 4 57 13s24 26 25 50c0 21-7 38-19 50-13 12-30 18-52 18h-126zm-50 173h182c38-1 67-12 86-33s29-46 29-75c0-24-6-44-18-60-13-16-30-26-54-31v-1c18-7 32-18 42-33 10-14 15-32 15-52 0-19-5-35-13-48-8-14-19-24-31-31s-28-11-46-12c-19-2-37-2-55-2h-137zm50-336h101c23-1 42 3 57 10 15 8 23 25 24 50 0 20-6 35-19 46-13 10-33 15-62 15h-101z"/><path d="m2700 14204h45c0-126 0-252 0-378-15 0-30 0-45 0z"/><path d="m2802 14068c0 40 12 74 34 101 23 26 56 40 99 41 43-1 76-15 99-41 22-27 34-61 34-101 0-41-12-75-34-101-23-27-56-41-99-42-43 1-76 15-99 42-22 26-34 60-34 101zm48 0c0-33 9-59 25-77 16-17 36-26 60-26s44 9 60 26c16 18 25 44 25 77s-9 58-25 76c-16 17-36 26-60 26s-44-9-60-26c-16-18-25-43-25-76z"/><path d="m3353 14019c-4-32-16-56-38-71-21-15-48-23-80-23-43 1-75 15-97 43-21 27-32 61-32 103 0 41 11 74 33 100 22 25 53 38 95 39 35 0 62-10 83-28 20-19 33-45 38-78h-46c-3 21-11 37-24 48-12 12-30 18-51 18-29-1-49-11-62-31-12-19-18-42-18-68-1-29 5-53 18-74 13-20 35-31 67-32 19 0 34 5 45 14 12 9 19 23 23 40z"/><path d="m3407 14204h45c0-35 0-69 0-104l42-39c31 48 63 95 94 143h57c-39-58-78-116-116-174 36-33 72-66 108-99-20 0-40 0-60 0-42 40-83 79-125 119 0-75 0-149 0-224-15 0-30 0-45 0z"/><path d="m2000 18750c0-833 0-1667 0-2500h8500v2500c-2833 0-5667 0-8500 0z" fill="#ffdb9c"/><path d="m2000 18750c0-833 0-1667 0-2500h8500v2500c-2833 0-5667 0-8500 0z" fill="none" stroke="#000" stroke-linejoin="round" stroke-width="50"/><path d="m2341 16954h50c0-58 0-115 0-173h173c0-14 0-28 0-42-57 0-115 0-173 0 0-40 0-81 0-121h198c0-14 0-28 0-42-83 0-165 0-248 0z"/><path d="m2641 16954h45c0-91 0-182 0-273-15 0-30 0-45 0zm45-378c-15 0-30 0-45 0v55h45c0-18 0-37 0-55z"/><path d="m2757 16954h45v-154c0-25 7-45 20-61s34-24 61-24c17 0 30 5 40 15s15 23 15 40v184h45v-179c1-30-6-54-20-72s-39-27-74-28c-20 0-37 4-52 12s-27 21-37 38h-1v-44h-42z"/><path d="m3223 16859c0 13-6 26-19 40-14 13-35 20-64 21-15 0-27-3-37-9s-16-16-16-31c0-16 6-28 16-35 11-7 24-11 39-14l45-6c15-2 27-6 36-12zm73 59c-3 1-5 1-8 2-2 0-4 0-6 0-7 0-11-2-12-7-2-5-2-13-2-23v-140c-1-31-12-51-33-61s-44-15-69-14c-32 0-58 7-80 21s-34 37-36 71h45c1-20 8-34 21-41 12-8 28-12 47-11 15-1 29 2 41 8s19 18 20 37c-1 16-10 26-28 30-17 3-39 7-64 11-24 2-46 9-64 20-18 12-28 32-29 62 1 27 10 47 27 59s38 18 64 18c19 0 36-4 53-10 16-7 30-18 43-32 0 14 3 25 10 32s16 10 28 10c7 0 13-1 18-2s10-3 14-6z"/><path d="m3339 16954h45c0-126 0-252 0-378-15 0-30 0-45 0z"/><path d="m3817 16815c1 28-5 52-18 73-12 20-34 31-64 32-31-1-53-11-67-31-13-20-20-44-20-72 0-26 6-50 20-70 13-20 34-31 64-32 29 1 51 11 65 31 13 20 20 43 20 69zm-212 139h45v-37h1c11 16 25 27 41 34 17 6 33 9 48 9 42-1 73-15 94-42 20-27 31-60 31-100 0-39-11-73-32-100s-52-42-94-43c-20 0-37 4-53 11-15 7-27 18-35 33h-1v-143h-45z"/><path d="m3919 16954h45c0-126 0-252 0-378-15 0-30 0-45 0z"/><path d="m4021 16818c0 40 12 74 34 101 23 26 56 40 99 41 43-1 76-15 99-41 22-27 34-61 34-101 0-41-12-75-34-101-23-27-56-41-99-42-43 1-76 15-99 42-22 26-34 60-34 101zm48 0c0-33 9-59 25-77 16-17 36-26 60-26s44 9 60 26c16 18 25 44 25 77s-9 58-25 76c-16 17-36 26-60 26s-44-9-60-26c-16-18-25-43-25-76z"/><path d="m4573 16769c-4-32-16-56-38-71-21-15-48-23-80-23-43 1-75 15-97 43-21 27-32 61-32 103 0 41 11 74 33 100 22 25 53 38 95 39 35 0 62-10 83-28 20-19 33-45 38-78h-46c-3 21-11 37-24 48-12 12-30 18-51 18-29-1-49-11-62-31-12-19-18-42-18-68-1-29 5-53 18-74 13-20 35-31 67-32 19 0 34 5 45 14 12 9 19 23 23 40z"/><path d="m4626 16954h45c0-35 0-69 0-104l42-39c31 48 63 95 94 143h57c-39-58-78-116-116-174l108-99c-20 0-40 0-60 0-42 40-83 79-125 119 0-75 0-149 0-224-15 0-30 0-45 0z"/><path d="m1500 5500c0-333 0-667 0-1000h3000v1000c-1000 0-2000 0-3000 0z" fill="#e1e0ff"/><path d="m1500 5500c0-333 0-667 0-1000h3000v1000c-1000 0-2000 0-3000 0z" fill="none" stroke="#000" stroke-linejoin="round" stroke-width="50"/><path d="m1727 5034h87c41 0 72-12 92-34 19-23 29-56 29-98 0-41-11-71-32-91-20-19-50-29-89-29h-87zm34-224h56c31 0 52 9 65 26s20 40 19 71c0 30-6 53-17 67-10 14-22 23-35 27s-24 6-32 5h-56z"/><path d="m1970 5034h30c0-61 0-121 0-182-10 0-20 0-30 0zm30-252c-10 0-20 0-30 0v37h30c0-12 0-25 0-37z"/><path d="m2045 5034h30v-114c0-7 3-17 11-28 7-11 20-17 38-18 13 0 22 4 27 11 5 8 7 17 7 29v120h30v-114c0-14 4-25 13-33 8-9 20-13 35-13 14 0 24 4 28 12 5 7 7 17 7 28v120h30v-134c0-18-6-32-17-40s-25-12-44-12c-12 0-22 3-32 8s-19 13-25 23c-4-11-10-19-19-24s-20-7-31-7c-13 0-24 3-34 8s-18 12-25 23h-1v-27h-28z"/><path d="m2470 4976c-2 12-8 21-16 27s-18 9-31 9c-19 0-34-6-43-18s-14-26-13-42h136c1-24-4-46-16-68-13-22-35-34-66-36-26 1-46 9-62 27-15 17-23 40-24 68 1 28 8 51 23 68 14 18 35 26 64 27 21 0 38-5 51-16 14-10 23-25 27-46zm-103-50c1-14 6-27 15-37 9-9 21-15 37-15 15 0 27 5 37 15 9 10 14 22 15 37z"/><path d="m2536 5034h30v-103c0-17 4-30 13-41 9-10 23-16 41-16 12 0 21 3 27 10 7 6 10 15 10 27v123h30v-120c0-20-4-36-13-48-10-12-26-18-50-18-13 0-24 3-34 8-11 5-19 14-25 25h-1v-29h-28z"/><path d="m2719 4977c1 22 9 38 24 47 14 10 32 14 53 14 20 0 37-4 53-12 16-9 24-24 25-45-1-17-7-29-19-37-11-7-25-12-41-15-14-3-28-6-40-10s-18-11-19-22c0-9 5-15 13-18 7-4 16-5 26-5s19 2 28 7c8 4 13 12 14 24h30c-2-22-9-37-23-45s-31-12-52-12c-16 0-32 4-46 12s-21 21-22 39c1 17 7 29 19 37 12 7 25 12 41 15 15 3 29 6 41 11 11 4 18 12 18 23-1 11-6 18-15 22s-19 5-29 5c-13 0-24-2-33-8-10-5-15-14-16-27z"/><path d="m2909 5034h30c0-61 0-121 0-182-10 0-20 0-30 0zm30-252c-10 0-20 0-30 0v37h30c0-12 0-25 0-37z"/><path d="m2975 4943c0 27 8 50 23 68 15 17 37 26 66 27 28-1 50-10 65-27 15-18 23-41 23-68s-8-50-23-68c-15-17-37-26-65-27-29 1-51 10-66 27-15 18-23 41-23 68zm32 0c0-22 6-39 16-51 11-12 24-18 41-18 16 0 29 6 40 18 10 12 16 29 16 51s-6 39-16 51c-11 12-24 18-40 18-17 0-30-6-41-18-10-12-16-29-16-51z"/><path d="m3188 5034h30v-103c0-17 4-30 13-41 9-10 23-16 41-16 12 0 21 3 27 10 7 6 10 15 10 27v123h30v-120c0-20-4-36-13-48-10-12-26-18-50-18-13 0-24 3-34 8-11 5-19 14-25 25h-1v-29h-28z"/><path d="m3370 4977c1 22 9 38 24 47 14 10 32 14 53 14 20 0 37-4 53-12 16-9 24-24 25-45-1-17-7-29-19-37-11-7-25-12-41-15-14-3-28-6-40-10s-18-11-19-22c0-9 5-15 13-18 7-4 16-5 26-5s19 2 28 7c8 4 13 12 14 24h30c-2-22-9-37-23-45s-31-12-52-12c-16 0-32 4-46 12s-21 21-22 39c1 17 7 29 19 37 12 7 25 12 41 15 15 3 29 6 41 11 11 4 18 12 18 23-1 11-6 18-15 22s-19 5-29 5c-13 0-24-2-33-8-10-5-15-14-16-27z"/><path d="m4750 5500c0-333 0-667 0-1000h3000v1000c-1000 0-2000 0-3000 0z" fill="#e1e0ff"/><path d="m4750 5500c0-333 0-667 0-1000h3000v1000c-1000 0-2000 0-3000 0z" fill="none" stroke="#000" stroke-linejoin="round" stroke-width="50"/><path d="m5188 4858c-4-27-16-48-35-61-19-14-42-21-68-21-39 1-69 14-89 39-21 25-31 56-31 94 0 37 10 68 29 93 19 24 49 37 88 38 32 0 57-9 76-27 18-17 30-42 33-74h-34c-1 21-8 39-21 52-12 14-29 21-51 21-30-1-52-11-66-31s-20-45-20-75c0-27 6-51 20-71s35-30 65-31c18 0 33 4 46 13s21 23 25 41z"/><path d="m5217 4943c0 27 8 50 23 68 15 17 37 26 66 27 28-1 50-10 65-27 15-18 23-41 23-68s-8-50-23-68c-15-17-37-26-65-27-29 1-51 10-66 27-15 18-23 41-23 68zm32 0c0-22 6-39 16-51 11-12 24-18 41-18 16 0 29 6 40 18 10 12 16 29 16 51s-6 39-16 51c-11 12-24 18-40 18-17 0-30-6-41-18-10-12-16-29-16-51z"/><path d="m5430 5034h30v-114c0-7 3-17 11-28 7-11 20-17 38-18 13 0 22 4 27 11 5 8 7 17 7 29v120h30v-114c0-14 4-25 13-33 8-9 20-13 35-13 14 0 24 4 28 12 5 7 7 17 7 28v120h30v-134c0-18-6-32-17-40s-25-12-44-12c-12 0-22 3-32 8s-19 13-25 23c-4-11-10-19-19-24s-20-7-31-7c-13 0-24 3-34 8s-18 12-25 23h-1v-27h-28z"/><path d="m5873 4941c0 19-4 35-12 49s-22 21-43 22c-20-1-35-8-44-21s-13-30-13-48 4-34 13-47c8-14 23-21 43-22 19 1 33 8 42 21 10 13 14 29 14 46zm-141 163h30v-94h1c7 10 16 18 27 22s22 6 32 6c27-1 48-10 62-28s21-40 21-66c0-27-7-49-21-68-14-18-35-27-63-28-13 0-24 2-35 7-10 4-18 12-23 21h-1v-24h-30z"/><path d="m5937 5034h30v-81c0-23 5-41 15-54 10-12 27-19 51-19v-32c-16 0-30 3-40 10-11 7-20 18-27 33h-1v-39h-28z"/><path d="m6178 4976c-2 12-8 21-16 27s-18 9-31 9c-19 0-34-6-43-18s-14-26-13-42h136c1-24-4-46-16-68-13-22-35-34-66-36-26 1-46 9-62 27-15 17-23 40-24 68 1 28 8 51 23 68 14 18 35 26 64 27 21 0 38-5 51-16 14-10 23-25 27-46zm-103-50c1-14 6-27 15-37 9-9 21-15 37-15 15 0 27 5 37 15 9 10 14 22 15 37z"/><path d="m6231 4977c1 22 9 38 24 47 14 10 32 14 53 14 20 0 37-4 53-12 16-9 24-24 25-45-1-17-7-29-19-37-11-7-25-12-41-15-14-3-28-6-40-10s-18-11-19-22c0-9 5-15 13-18 7-4 16-5 26-5s19 2 28 7c8 4 13 12 14 24h30c-2-22-9-37-23-45s-31-12-52-12c-16 0-32 4-46 12s-21 21-22 39c1 17 7 29 19 37 12 7 25 12 41 15 15 3 29 6 41 11 11 4 18 12 18 23-1 11-6 18-15 22s-19 5-29 5c-13 0-24-2-33-8-10-5-15-14-16-27z"/><path d="m6409 4977c1 22 9 38 24 47 14 10 32 14 53 14 20 0 37-4 53-12 16-9 24-24 25-45-1-17-7-29-19-37-11-7-25-12-41-15-14-3-28-6-40-10s-18-11-19-22c0-9 5-15 13-18 7-4 16-5 26-5s19 2 28 7c8 4 13 12 14 24h30c-2-22-9-37-23-45s-31-12-52-12c-16 0-32 4-46 12s-21 21-22 39c1 17 7 29 19 37 12 7 25 12 41 15 15 3 29 6 41 11 11 4 18 12 18 23-1 11-6 18-15 22s-19 5-29 5c-13 0-24-2-33-8-10-5-15-14-16-27z"/><path d="m6600 5034h30c0-61 0-121 0-182-10 0-20 0-30 0zm30-252c-10 0-20 0-30 0v37h30c0-12 0-25 0-37z"/><path d="m6665 4943c0 27 8 50 23 68 15 17 37 26 66 27 28-1 50-10 65-27 15-18 23-41 23-68s-8-50-23-68c-15-17-37-26-65-27-29 1-51 10-66 27-15 18-23 41-23 68zm32 0c0-22 6-39 16-51 11-12 24-18 41-18 16 0 29 6 40 18 10 12 16 29 16 51s-6 39-16 51c-11 12-24 18-40 18-17 0-30-6-41-18-10-12-16-29-16-51z"/><path d="m6878 5034h30v-103c0-17 4-30 13-41 9-10 23-16 41-16 12 0 21 3 27 10 7 6 10 15 10 27v123h30v-120c0-20-4-36-13-48-10-12-26-18-50-18-13 0-24 3-34 8-11 5-19 14-25 25h-1v-29h-28z"/><path d="m8000 5500c0-333 0-667 0-1000h3000v1000c-1000 0-2000 0-3000 0z" fill="#e1e0ff"/><path d="m8000 5500c0-333 0-667 0-1000h3000v1000c-1000 0-2000 0-3000 0z" fill="none" stroke="#000" stroke-linejoin="round" stroke-width="50"/><path d="m8228 5034h32c0-70 0-140 0-210h1l78 210h29l78-210h1v210h32c0-84 0-168 0-252-15 0-31 0-46 0-27 71-53 141-80 212-26-71-53-141-79-212-15 0-31 0-46 0z"/><path d="m8529 5034h30c0-61 0-121 0-182-10 0-20 0-30 0zm30-252c-10 0-20 0-30 0v37h30c0-12 0-25 0-37z"/><path d="m8592 4977c1 22 9 38 24 47 14 10 32 14 53 14 20 0 37-4 53-12 16-9 24-24 25-45-1-17-7-29-19-37-11-7-25-12-41-15-14-3-28-6-40-10s-18-11-19-22c0-9 5-15 13-18 7-4 16-5 26-5s19 2 28 7c8 4 13 12 14 24h30c-2-22-9-37-23-45s-31-12-52-12c-16 0-32 4-46 12s-21 21-22 39c1 17 7 29 19 37 12 7 25 12 41 15 15 3 29 6 41 11 11 4 18 12 18 23-1 11-6 18-15 22s-19 5-29 5c-13 0-24-2-33-8-10-5-15-14-16-27z"/><path d="m8937 4910c-3-21-11-37-25-47-15-10-33-15-54-15-29 1-50 10-65 28-14 18-21 41-21 69s7 50 22 67c14 17 36 25 64 26 23 0 41-6 54-19 14-12 23-29 26-51h-31c-2 13-7 24-15 32-9 8-20 12-35 12-19-1-32-8-41-21-8-13-12-28-12-46 0-19 4-35 12-49s23-21 45-22c12 0 22 3 30 10 8 6 13 15 15 26z"/><path d="m9097 4976c-2 12-8 21-16 27s-18 9-31 9c-19 0-34-6-43-18s-14-26-13-42h136c1-24-4-46-16-68-13-22-35-34-66-36-26 1-46 9-62 27-15 17-23 40-24 68 1 28 8 51 23 68 14 18 35 26 64 27 21 0 38-5 51-16 14-10 23-25 27-46zm-103-50c1-14 6-27 15-37 9-9 21-15 37-15 15 0 27 5 37 15 9 10 14 22 15 37z"/><path d="m9164 5034h30c0-84 0-168 0-252-10 0-20 0-30 0z"/><path d="m9240 5034h30c0-84 0-168 0-252-10 0-20 0-30 0z"/><path d="m9428 4971c0 9-4 18-13 27s-23 13-43 14c-9 0-17-2-24-6s-11-11-11-21c0-11 4-18 11-23s15-8 26-10c10-1 20-3 30-4s18-4 24-8zm49 39c-4 2-7 2-10 2-4 0-7-2-8-5s-1-8-1-15v-94c-1-21-8-35-22-41-14-7-29-10-46-9-21 0-39 4-54 13-14 10-22 25-24 48h30c1-14 5-23 14-28 8-5 19-7 32-7 10 0 19 1 27 5 9 4 13 13 13 25 0 11-6 17-18 20-12 2-26 5-43 7-16 3-30 8-43 15-12 8-18 21-19 41 1 18 6 31 18 39 11 8 25 12 43 12 12 0 24-2 35-7 11-4 20-11 29-21 0 10 2 17 7 21 4 5 10 7 18 7 5 0 9 0 12-1 4-1 7-2 10-4z"/><path d="m9506 5034h30v-103c0-17 4-30 13-41 9-10 23-16 41-16 12 0 21 3 27 10 7 6 10 15 10 27v123h30v-120c0-20-4-36-13-48-10-12-26-18-50-18-13 0-24 3-34 8-11 5-19 14-25 25h-1v-29h-28z"/><path d="m9825 4976c-2 12-8 21-16 27s-18 9-31 9c-19 0-34-6-43-18s-14-26-13-42h136c1-24-4-46-16-68-13-22-35-34-66-36-26 1-46 9-62 27-15 17-23 40-24 68 1 28 8 51 23 68 14 18 35 26 64 27 21 0 38-5 51-16 14-10 23-25 27-46zm-103-50c1-14 6-27 15-37 9-9 21-15 37-15 15 0 27 5 37 15 9 10 14 22 15 37z"/><path d="m9881 4943c0 27 8 50 23 68 15 17 37 26 66 27 28-1 50-10 65-27 15-18 23-41 23-68s-8-50-23-68c-15-17-37-26-65-27-29 1-51 10-66 27-15 18-23 41-23 68zm32 0c0-22 6-39 16-51 11-12 24-18 41-18 16 0 29 6 40 18 10 12 16 29 16 51s-6 39-16 51c-11 12-24 18-40 18-17 0-30-6-41-18-10-12-16-29-16-51z"/><path d="m10245 4852h-30v103c0 17-4 30-13 41-9 10-23 16-41 16-12 0-21-3-27-10-7-6-10-15-10-27v-123h-30v120c0 20 4 36 13 48 10 12 26 18 50 18 13 0 24-3 34-8 11-5 19-14 25-25h1v29h28z"/><path d="m10277 4977c1 22 9 38 24 47 14 10 32 14 53 14 20 0 37-4 53-12 16-9 24-24 25-45-1-17-7-29-19-37-11-7-25-12-41-15-14-3-28-6-40-10s-18-11-19-22c0-9 5-15 13-18 7-4 16-5 26-5s19 2 28 7c8 4 13 12 14 24h30c-2-22-9-37-23-45s-31-12-52-12c-16 0-32 4-46 12s-21 21-22 39c1 17 7 29 19 37 12 7 25 12 41 15 15 3 29 6 41 11 11 4 18 12 18 23-1 11-6 18-15 22s-19 5-29 5c-13 0-24-2-33-8-10-5-15-14-16-27z"/></g></svg>