<svg version="1.1" xmlns="http://www.w3.org/2000/svg">
  <defs>
    <symbol id="at" viewBox="0 0 512 512">
      <path d="M256 64C150 64 64 150 64 256s86 192 192 192c17.7 0 32 14.3 32 32s-14.3 32-32 32C114.6 512 0 397.4 0 256S114.6 0 256 0S512 114.6 512 256l0 32c0 53-43 96-96 96c-29.3 0-55.6-13.2-73.2-33.9C320 371.1 289.5 384 256 384c-70.7 0-128-57.3-128-128s57.3-128 128-128c27.9 0 53.7 8.9 74.7 24.1c5.7-5 13.1-8.1 21.3-8.1c17.7 0 32 14.3 32 32l0 80 0 32c0 17.7 14.3 32 32 32s32-14.3 32-32l0-32c0-106-86-192-192-192zm64 192a64 64 0 1 0 -128 0 64 64 0 1 0 128 0z"/>
    </symbol>
    <symbol id="image" viewBox="0 0 16 16">
      <title>image</title>
      <path d="M14.998 2c0.001 0.001 0.001 0.001 0.002 0.002v11.996c-0.001 0.001-0.001 0.001-0.002 0.002h-13.996c-0.001-0.001-0.001-0.001-0.002-0.002v-11.996c0.001-0.001 0.001-0.001 0.002-0.002h13.996zM15 1h-14c-0.55 0-1 0.45-1 1v12c0 0.55 0.45 1 1 1h14c0.55 0 1-0.45 1-1v-12c0-0.55-0.45-1-1-1v0z"></path>
      <path d="M13 4.5c0 0.828-0.672 1.5-1.5 1.5s-1.5-0.672-1.5-1.5 0.672-1.5 1.5-1.5 1.5 0.672 1.5 1.5z"></path>
      <path d="M14 13h-12v-2l3.5-6 4 5h1l3.5-3z"></path>
    </symbol>
    <symbol id="images" viewBox="0 0 18 16">
      <title>images</title>
      <path d="M17 2h-1v-1c0-0.55-0.45-1-1-1h-14c-0.55 0-1 0.45-1 1v12c0 0.55 0.45 1 1 1h1v1c0 0.55 0.45 1 1 1h14c0.55 0 1-0.45 1-1v-12c0-0.55-0.45-1-1-1zM2 3v10h-0.998c-0.001-0.001-0.001-0.001-0.002-0.002v-11.996c0.001-0.001 0.001-0.001 0.002-0.002h13.996c0.001 0.001 0.001 0.001 0.002 0.002v0.998h-12c-0.55 0-1 0.45-1 1v0zM17 14.998c-0.001 0.001-0.001 0.001-0.002 0.002h-13.996c-0.001-0.001-0.001-0.001-0.002-0.002v-11.996c0.001-0.001 0.001-0.001 0.002-0.002h13.996c0.001 0.001 0.001 0.001 0.002 0.002v11.996z"></path>
      <path d="M15 5.5c0 0.828-0.672 1.5-1.5 1.5s-1.5-0.672-1.5-1.5 0.672-1.5 1.5-1.5 1.5 0.672 1.5 1.5z"></path>
      <path d="M16 14h-12v-2l3.5-6 4 5h1l3.5-3z"></path>
    </symbol>
    <symbol id="camera" viewBox="0 0 16 16">
      <title>camera</title>
      <path d="M4.75 9.5c0 1.795 1.455 3.25 3.25 3.25s3.25-1.455 3.25-3.25-1.455-3.25-3.25-3.25-3.25 1.455-3.25 3.25zM15 4h-3.5c-0.25-1-0.5-2-1.5-2h-4c-1 0-1.25 1-1.5 2h-3.5c-0.55 0-1 0.45-1 1v9c0 0.55 0.45 1 1 1h14c0.55 0 1-0.45 1-1v-9c0-0.55-0.45-1-1-1zM8 13.938c-2.451 0-4.438-1.987-4.438-4.438s1.987-4.438 4.438-4.438c2.451 0 4.438 1.987 4.438 4.438s-1.987 4.438-4.438 4.438zM15 7h-2v-1h2v1z"></path>
    </symbol>
    <symbol id="clock" viewBox="0 0 16 16">
      <title>clock</title>
      <path d="M10.293 11.707l-3.293-3.293v-4.414h2v3.586l2.707 2.707zM8 0c-4.418 0-8 3.582-8 8s3.582 8 8 8 8-3.582 8-8-3.582-8-8-8zM8 14c-3.314 0-6-2.686-6-6s2.686-6 6-6c3.314 0 6 2.686 6 6s-2.686 6-6 6z"></path>
    </symbol>
    <symbol id="headphones" viewBox="0 0 16 16">
      <title>headphones</title>
      <path d="M4.5 9h-1v7h1c0.275 0 0.5-0.225 0.5-0.5v-6c0-0.275-0.225-0.5-0.5-0.5z"></path>
      <path d="M11.5 9c-0.275 0-0.5 0.225-0.5 0.5v6c0 0.275 0.225 0.5 0.5 0.5h1v-7h-1z"></path>
      <path d="M16 8c0-4.418-3.582-8-8-8s-8 3.582-8 8c0 0.96 0.169 1.88 0.479 2.732-0.304 0.519-0.479 1.123-0.479 1.768 0 1.763 1.304 3.222 3 3.464v-6.928c-0.499 0.071-0.963 0.248-1.371 0.506-0.084-0.417-0.129-0.849-0.129-1.292 0-3.59 2.91-6.5 6.5-6.5s6.5 2.91 6.5 6.5c0 0.442-0.044 0.874-0.128 1.292-0.408-0.259-0.873-0.435-1.372-0.507v6.929c1.696-0.243 3-1.701 3-3.464 0-0.645-0.175-1.249-0.479-1.768 0.31-0.853 0.479-1.773 0.479-2.732z"></path>
    </symbol>
    <symbol id="qrcode" viewBox="0 0 16 16">
      <title>qrcode</title>
      <path d="M5 1h-4v4h4v-4zM6 0v0 6h-6v-6h6zM2 2h2v2h-2zM15 1h-4v4h4v-4zM16 0v0 6h-6v-6h6zM12 2h2v2h-2zM5 11h-4v4h4v-4zM6 10v0 6h-6v-6h6zM2 12h2v2h-2zM7 0h1v1h-1zM8 1h1v1h-1zM7 2h1v1h-1zM8 3h1v1h-1zM7 4h1v1h-1zM8 5h1v1h-1zM7 6h1v1h-1zM7 8h1v1h-1zM8 9h1v1h-1zM7 10h1v1h-1zM8 11h1v1h-1zM7 12h1v1h-1zM8 13h1v1h-1zM7 14h1v1h-1zM8 15h1v1h-1zM15 8h1v1h-1zM1 8h1v1h-1zM2 7h1v1h-1zM0 7h1v1h-1zM4 7h1v1h-1zM5 8h1v1h-1zM6 7h1v1h-1zM9 8h1v1h-1zM10 7h1v1h-1zM11 8h1v1h-1zM12 7h1v1h-1zM13 8h1v1h-1zM14 7h1v1h-1zM15 10h1v1h-1zM9 10h1v1h-1zM10 9h1v1h-1zM11 10h1v1h-1zM13 10h1v1h-1zM14 9h1v1h-1zM15 12h1v1h-1zM9 12h1v1h-1zM10 11h1v1h-1zM12 11h1v1h-1zM13 12h1v1h-1zM14 11h1v1h-1zM15 14h1v1h-1zM10 13h1v1h-1zM11 14h1v1h-1zM12 13h1v1h-1zM13 14h1v1h-1zM10 15h1v1h-1zM12 15h1v1h-1zM14 15h1v1h-1z"></path>
    </symbol>
    <symbol id="location" viewBox="0 0 16 16">
      <title>location</title>
      <path d="M8 0c-2.761 0-5 2.239-5 5 0 5 5 11 5 11s5-6 5-11c0-2.761-2.239-5-5-5zM8 8c-1.657 0-3-1.343-3-3s1.343-3 3-3 3 1.343 3 3-1.343 3-3 3z"></path>
    </symbol>
    <symbol id="compass" viewBox="0 0 16 16">
      <title>compass</title>
      <path d="M8 0c-4.418 0-8 3.582-8 8s3.582 8 8 8 8-3.582 8-8-3.582-8-8-8zM1.5 8c0-3.59 2.91-6.5 6.5-6.5 1.712 0 3.269 0.662 4.43 1.744l-6.43 2.756-2.756 6.43c-1.082-1.161-1.744-2.718-1.744-4.43zM9.143 9.143l-4.001 1.715 1.715-4.001 2.286 2.286zM8 14.5c-1.712 0-3.269-0.662-4.43-1.744l6.43-2.756 2.756-6.43c1.082 1.161 1.744 2.718 1.744 4.43 0 3.59-2.91 6.5-6.5 6.5z"></path>
    </symbol>
    <symbol id="map" viewBox="0 0 16 16">
      <title>map</title>
      <path d="M0 3l5-2v12l-5 2z"></path>
      <path d="M6 0.5l5 3v11.5l-5-2.5z"></path>
      <path d="M12 3.5l4-3v12l-4 3z"></path>
    </symbol>
    <symbol id="calendar" viewBox="0 0 16 16">
      <title>calendar</title>
      <path d="M5 6h2v2h-2zM8 6h2v2h-2zM11 6h2v2h-2zM2 12h2v2h-2zM5 12h2v2h-2zM8 12h2v2h-2zM5 9h2v2h-2zM8 9h2v2h-2zM11 9h2v2h-2zM2 9h2v2h-2zM13 0v1h-2v-1h-7v1h-2v-1h-2v16h15v-16h-2zM14 15h-13v-11h13v11z"></path>
    </symbol>
    <symbol id="enlarge" viewBox="0 0 16 16">
      <title>enlarge</title>
      <path d="M16 0v6.5l-2.5-2.5-3 3-1.5-1.5 3-3-2.5-2.5zM7 10.5l-3 3 2.5 2.5h-6.5v-6.5l2.5 2.5 3-3z"></path>
    </symbol>
    <symbol id="shrink" viewBox="0 0 16 16">
      <title>shrink</title>
      <path d="M7 9v6.5l-2.5-2.5-3 3-1.5-1.5 3-3-2.5-2.5zM16 1.5l-3 3 2.5 2.5h-6.5v-6.5l2.5 2.5 3-3z"></path>
    </symbol>
    <symbol id="bookmarks" viewBox="0 0 16 16">
      <title>bookmarks</title>
      <path d="M4 2v14l5-5 5 5v-14zM12 0h-10v14l1-1v-12h9z"></path>
    </symbol>
    <symbol id="cancel" viewBox="0 0 16 16">
      <title>cancel</title>
      <path d="M8 0c-4.418 0-8 3.582-8 8s3.582 8 8 8 8-3.582 8-8-3.582-8-8-8zM8 14.5c-3.59 0-6.5-2.91-6.5-6.5s2.91-6.5 6.5-6.5 6.5 2.91 6.5 6.5-2.91 6.5-6.5 6.5z"></path>
      <path d="M10.5 4l-2.5 2.5-2.5-2.5-1.5 1.5 2.5 2.5-2.5 2.5 1.5 1.5 2.5-2.5 2.5 2.5 1.5-1.5-2.5-2.5 2.5-2.5z"></path>
    </symbol>
    <symbol id="play" viewBox="0 0 16 16">
      <title>play</title>
      <path d="M8 0c-4.418 0-8 3.582-8 8s3.582 8 8 8 8-3.582 8-8-3.582-8-8-8zM8 14.5c-3.59 0-6.5-2.91-6.5-6.5s2.91-6.5 6.5-6.5 6.5 2.91 6.5 6.5-2.91 6.5-6.5 6.5zM6 4.5l6 3.5-6 3.5z"></path>
    </symbol>
    <symbol id="pause" viewBox="0 0 16 16">
      <title>pause</title>
      <path d="M8 0c-4.418 0-8 3.582-8 8s3.582 8 8 8 8-3.582 8-8-3.582-8-8-8zM8 14.5c-3.59 0-6.5-2.91-6.5-6.5s2.91-6.5 6.5-6.5 6.5 2.91 6.5 6.5-2.91 6.5-6.5 6.5zM5 5h2v6h-2zM9 5h2v6h-2z"></path>
    </symbol>
    <symbol id="stop" viewBox="0 0 16 16">
      <title>stop</title>
      <path d="M8 0c-4.418 0-8 3.582-8 8s3.582 8 8 8 8-3.582 8-8-3.582-8-8-8zM8 14.5c-3.59 0-6.5-2.91-6.5-6.5s2.91-6.5 6.5-6.5 6.5 2.91 6.5 6.5-2.91 6.5-6.5 6.5zM5 5h6v6h-6z"></path>
    </symbol>
    <symbol id="checkbox-checked" viewBox="0 0 16 16">
      <title>checkbox-checked</title>
      <path d="M14 0h-12c-1.1 0-2 0.9-2 2v12c0 1.1 0.9 2 2 2h12c1.1 0 2-0.9 2-2v-12c0-1.1-0.9-2-2-2zM7 12.414l-3.707-3.707 1.414-1.414 2.293 2.293 4.793-4.793 1.414 1.414-6.207 6.207z"></path>
    </symbol>
    <symbol id="checkbox-unchecked" viewBox="0 0 16 16">
      <path d="M14 0h-12c-1.1 0-2 0.9-2 2v12c0 1.1 0.9 2 2 2h12c1.1 0 2-0.9 2-2v-12c0-1.1-0.9-2-2-2zM14 14h-12v-12h12v12z"></path>
    </symbol>
    <symbol id="html-tag" viewBox="0 0 20 16">
      <path d="M13 11.5l1.5 1.5 5-5-5-5-1.5 1.5 3.5 3.5z"></path>
      <path d="M7 4.5l-1.5-1.5-5 5 5 5 1.5-1.5-3.5-3.5z"></path>
      <path d="M10.958 2.352l1.085 0.296-3 11-1.085-0.296 3-11z"></path>
    </symbol>
    <symbol id="twitter" viewBox="0 0 16 16">
      <path d="M16 3.538c-0.588 0.263-1.222 0.438-1.884 0.516 0.678-0.406 1.197-1.050 1.444-1.816-0.634 0.375-1.338 0.65-2.084 0.797-0.6-0.638-1.453-1.034-2.397-1.034-1.813 0-3.281 1.469-3.281 3.281 0 0.256 0.028 0.506 0.084 0.747-2.728-0.138-5.147-1.444-6.766-3.431-0.281 0.484-0.444 1.050-0.444 1.65 0 1.138 0.578 2.144 1.459 2.731-0.538-0.016-1.044-0.166-1.488-0.409 0 0.013 0 0.028 0 0.041 0 1.591 1.131 2.919 2.634 3.219-0.275 0.075-0.566 0.116-0.866 0.116-0.212 0-0.416-0.022-0.619-0.059 0.419 1.303 1.631 2.253 3.066 2.281-1.125 0.881-2.538 1.406-4.078 1.406-0.266 0-0.525-0.016-0.784-0.047 1.456 0.934 3.181 1.475 5.034 1.475 6.037 0 9.341-5.003 9.341-9.341 0-0.144-0.003-0.284-0.009-0.425 0.641-0.459 1.197-1.038 1.637-1.697z"></path>
    </symbol>
    <symbol id="rss" viewBox="0 0 16 16">
      <path d="M2.13 11.733c-1.175 0-2.13 0.958-2.13 2.126 0 1.174 0.955 2.122 2.13 2.122 1.179 0 2.133-0.948 2.133-2.122-0-1.168-0.954-2.126-2.133-2.126zM0.002 5.436v3.067c1.997 0 3.874 0.781 5.288 2.196 1.412 1.411 2.192 3.297 2.192 5.302h3.080c-0-5.825-4.739-10.564-10.56-10.564zM0.006 0v3.068c7.122 0 12.918 5.802 12.918 12.932h3.076c0-8.82-7.176-16-15.994-16z"></path>
    </symbol>
    <symbol id="youtube" viewBox="0 0 16 16">
      <path d="M15.841 4.8c0 0-0.156-1.103-0.637-1.587-0.609-0.637-1.291-0.641-1.603-0.678-2.237-0.163-5.597-0.163-5.597-0.163h-0.006c0 0-3.359 0-5.597 0.163-0.313 0.038-0.994 0.041-1.603 0.678-0.481 0.484-0.634 1.587-0.634 1.587s-0.159 1.294-0.159 2.591v1.213c0 1.294 0.159 2.591 0.159 2.591s0.156 1.103 0.634 1.588c0.609 0.637 1.409 0.616 1.766 0.684 1.281 0.122 5.441 0.159 5.441 0.159s3.363-0.006 5.6-0.166c0.313-0.037 0.994-0.041 1.603-0.678 0.481-0.484 0.637-1.588 0.637-1.588s0.159-1.294 0.159-2.591v-1.213c-0.003-1.294-0.162-2.591-0.162-2.591zM6.347 10.075v-4.497l4.322 2.256-4.322 2.241z"></path>
    </symbol>
    <symbol id="github" viewBox="0 0 16 16">
      <path d="M8 0.198c-4.418 0-8 3.582-8 8 0 3.535 2.292 6.533 5.471 7.591 0.4 0.074 0.547-0.174 0.547-0.385 0-0.191-0.008-0.821-0.011-1.489-2.226 0.484-2.695-0.944-2.695-0.944-0.364-0.925-0.888-1.171-0.888-1.171-0.726-0.497 0.055-0.486 0.055-0.486 0.803 0.056 1.226 0.824 1.226 0.824 0.714 1.223 1.872 0.869 2.328 0.665 0.072-0.517 0.279-0.87 0.508-1.070-1.777-0.202-3.645-0.888-3.645-3.954 0-0.873 0.313-1.587 0.824-2.147-0.083-0.202-0.357-1.015 0.077-2.117 0 0 0.672-0.215 2.201 0.82 0.638-0.177 1.322-0.266 2.002-0.269 0.68 0.003 1.365 0.092 2.004 0.269 1.527-1.035 2.198-0.82 2.198-0.82 0.435 1.102 0.162 1.916 0.079 2.117 0.513 0.56 0.823 1.274 0.823 2.147 0 3.073-1.872 3.749-3.653 3.947 0.287 0.248 0.543 0.735 0.543 1.481 0 1.070-0.009 1.932-0.009 2.195 0 0.213 0.144 0.462 0.55 0.384 3.177-1.059 5.466-4.057 5.466-7.59 0-4.418-3.582-8-8-8z"></path>
    </symbol>
    <symbol id="book" viewBox="0 0 32 32">
      <path d="M28 4v26h-21c-1.657 0-3-1.343-3-3s1.343-3 3-3h19v-24h-20c-2.2 0-4 1.8-4 4v24c0 2.2 1.8 4 4 4h24v-28h-2z"></path>
      <path d="M7.002 26v0c-0.001 0-0.001 0-0.002 0-0.552 0-1 0.448-1 1s0.448 1 1 1c0.001 0 0.001-0 0.002-0v0h18.997v-2h-18.997z"></path>
    </symbol>
    <symbol id="buy" viewBox="0 0 32 32">
      <path d="M12 29c0 1.657-1.343 3-3 3s-3-1.343-3-3c0-1.657 1.343-3 3-3s3 1.343 3 3z"></path>
      <path d="M32 29c0 1.657-1.343 3-3 3s-3-1.343-3-3c0-1.657 1.343-3 3-3s3 1.343 3 3z"></path>
      <path d="M32 16v-12h-24c0-1.105-0.895-2-2-2h-6v2h4l1.502 12.877c-0.915 0.733-1.502 1.859-1.502 3.123 0 2.209 1.791 4 4 4h24v-2h-24c-1.105 0-2-0.895-2-2 0-0.007 0-0.014 0-0.020l26-3.98z"></path>
    </symbol>
    <symbol id="donate" viewBox="0 0 32 32">
      <path d="M15 2c-8.284 0-15 6.716-15 15s6.716 15 15 15c8.284 0 15-6.716 15-15s-6.716-15-15-15zM15 29c-6.627 0-12-5.373-12-12s5.373-12 12-12c6.627 0 12 5.373 12 12s-5.373 12-12 12z"></path>
      <path d="M20.963 20.136c-0.477-0.278-1.089-0.116-1.367 0.362-0.539 0.927-1.534 1.503-2.596 1.503h-4c-1.304 0-2.415-0.836-2.828-2h4.828c0.552 0 1-0.448 1-1s-0.448-1-1-1h-5v-2h5c0.552 0 1-0.448 1-1s-0.448-1-1-1h-4.828c0.413-1.164 1.524-2 2.828-2h4c1.062 0 2.057 0.576 2.596 1.503 0.278 0.477 0.89 0.639 1.367 0.361s0.639-0.89 0.361-1.367c-0.896-1.54-2.553-2.497-4.325-2.497h-4c-2.415 0-4.435 1.72-4.899 4h-1.101c-0.552 0-1 0.448-1 1s0.448 1 1 1h1v2h-1c-0.552 0-1 0.448-1 1s0.448 1 1 1h1.101c0.465 2.279 2.485 4 4.899 4h4c1.772 0 3.429-0.957 4.325-2.497 0.278-0.477 0.116-1.090-0.362-1.367z"></path>
    </symbol>
    <symbol id="reactions" viewBox="0 0 36 32">
      <path d="M34 28.161c0 1.422 0.813 2.653 2 3.256v0.498c-0.332 0.045-0.671 0.070-1.016 0.070-2.125 0-4.042-0.892-5.398-2.321-0.819 0.218-1.688 0.336-2.587 0.336-4.971 0-9-3.582-9-8s4.029-8 9-8c4.971 0 9 3.582 9 8 0 1.73-0.618 3.331-1.667 4.64-0.213 0.463-0.333 0.979-0.333 1.522zM16 0c8.702 0 15.781 5.644 15.995 12.672-1.537-0.685-3.237-1.047-4.995-1.047-2.986 0-5.807 1.045-7.942 2.943-2.214 1.968-3.433 4.607-3.433 7.432 0 1.396 0.298 2.747 0.867 3.993-0.163 0.004-0.327 0.007-0.492 0.007-0.849 0-1.682-0.054-2.495-0.158-3.437 3.437-7.539 4.053-11.505 4.144v-0.841c2.142-1.049 4-2.961 4-5.145 0-0.305-0.024-0.604-0.068-0.897-3.619-2.383-5.932-6.024-5.932-10.103 0-7.18 7.163-13 16-13z"></path>
    </symbol>
    <symbol id="search" viewBox="0 0 32 32">
      <path d="M31.008 27.231l-7.58-6.447c-0.784-0.705-1.622-1.029-2.299-0.998 1.789-2.096 2.87-4.815 2.87-7.787 0-6.627-5.373-12-12-12s-12 5.373-12 12 5.373 12 12 12c2.972 0 5.691-1.081 7.787-2.87-0.031 0.677 0.293 1.515 0.998 2.299l6.447 7.58c1.104 1.226 2.907 1.33 4.007 0.23s0.997-2.903-0.23-4.007zM12 20c-4.418 0-8-3.582-8-8s3.582-8 8-8 8 3.582 8 8-3.582 8-8 8z"></path>
    </symbol>
    <symbol id="browse" viewBox="0 0 32 32">
      <path d="M12 2h20v4h-20v-4zM12 14h20v4h-20v-4zM12 26h20v4h-20v-4zM0 4c0-2.209 1.791-4 4-4s4 1.791 4 4c0 2.209-1.791 4-4 4s-4-1.791-4-4zM0 16c0-2.209 1.791-4 4-4s4 1.791 4 4c0 2.209-1.791 4-4 4s-4-1.791-4-4zM0 28c0-2.209 1.791-4 4-4s4 1.791 4 4c0 2.209-1.791 4-4 4s-4-1.791-4-4z"></path>
    </symbol>
    <symbol id="algolia" viewBox="0 0 485 120" preserveAspectRatio="xMinYMid">
      <path d="M16.8-1.001h88.4c8.7 0 15.8 7.065 15.8 15.8v88.405c0 8.7-7.065 15.795-15.8 15.795H16.8c-8.7 0-15.8-7.06-15.8-15.795V14.759c0-8.695 7.06-15.76 15.8-15.76" fill="#5468FF"/><path d="M73.505 25.788v-4.115a5.209 5.209 0 0 0-5.21-5.205H56.15a5.209 5.209 0 0 0-5.21 5.205v4.225c0 .47.435.8.91.69a37.966 37.966 0 0 1 10.57-1.49c3.465 0 6.895.47 10.21 1.38.44.11.875-.215.875-.69M40.22 31.173l-2.075-2.075a5.206 5.206 0 0 0-7.365 0l-2.48 2.475a5.185 5.185 0 0 0 0 7.355l2.04 2.04c.33.325.805.25 1.095-.075a39.876 39.876 0 0 1 3.975-4.66 37.68 37.68 0 0 1 4.7-4c.364-.22.4-.73.11-1.06m22.164 13.065v17.8c0 .51.55.875 1.02.62l15.825-8.19c.36-.18.47-.62.29-.98-3.28-5.755-9.37-9.685-16.405-9.94-.365 0-.73.29-.73.69m0 42.88c-13.195 0-23.915-10.705-23.915-23.88 0-13.175 10.72-23.875 23.915-23.875 13.2 0 23.916 10.7 23.916 23.875s-10.68 23.88-23.916 23.88m0-57.8c-18.74 0-33.94 15.18-33.94 33.92 0 18.745 15.2 33.89 33.94 33.89s33.94-15.18 33.94-33.925c0-18.745-15.165-33.885-33.94-33.885" fill="#FFF"/>
      <path d="M240.214 94.177c-23.365.11-23.365-18.855-23.365-21.875l-.04-71.045 14.254-2.26v70.61c0 1.715 0 12.56 9.15 12.595v11.975h.001zm-57.78-11.61c4.374 0 7.62-.255 9.88-.69V67.392a29.196 29.196 0 0 0-3.43-.695 33.742 33.742 0 0 0-4.956-.365c-1.57 0-3.175.11-4.775.365-1.605.22-3.065.655-4.34 1.275-1.275.62-2.335 1.495-3.1 2.62-.8 1.13-1.165 1.785-1.165 3.495 0 3.345 1.165 5.28 3.28 6.55 2.115 1.275 4.995 1.93 8.606 1.93zm-1.24-51.685c4.7 0 8.674.585 11.884 1.75 3.206 1.165 5.796 2.8 7.69 4.875 1.935 2.11 3.245 4.915 4.046 7.9.84 2.985 1.24 6.26 1.24 9.86v36.62c-2.185.47-5.506 1.015-9.95 1.67-4.446.655-9.44.985-14.986.985-3.68 0-7.07-.365-10.095-1.055-3.065-.69-5.65-1.82-7.84-3.385-2.15-1.565-3.825-3.57-5.065-6.04-1.205-2.48-1.825-5.97-1.825-9.61 0-3.495.69-5.715 2.045-8.12 1.38-2.4 3.24-4.365 5.575-5.895 2.37-1.53 5.065-2.62 8.165-3.275 3.1-.655 6.345-.985 9.695-.985 1.57 0 3.21.11 4.96.29 1.715.185 3.575.515 5.545.985v-2.33c0-1.635-.185-3.2-.585-4.655a10.012 10.012 0 0 0-2.045-3.895c-.985-1.13-2.255-2.005-3.86-2.62-1.605-.62-3.65-1.095-6.09-1.095-3.28 0-6.27.4-9.005.875-2.735.47-4.995 1.02-6.71 1.635l-1.71-11.68c1.785-.62 4.445-1.24 7.875-1.855 3.425-.66 7.11-.95 11.045-.95h.001zm281.51 51.285c4.375 0 7.615-.255 9.875-.695v-14.48c-.8-.22-1.93-.475-3.425-.695a33.813 33.813 0 0 0-4.96-.365c-1.565 0-3.17.11-4.775.365-1.6.22-3.06.655-4.335 1.275-1.28.62-2.335 1.495-3.1 2.62-.805 1.13-1.165 1.785-1.165 3.495 0 3.345 1.165 5.28 3.28 6.55 2.15 1.31 4.995 1.93 8.605 1.93zm-1.205-51.645c4.7 0 8.674.58 11.884 1.745 3.205 1.165 5.795 2.8 7.69 4.875 1.895 2.075 3.245 4.915 4.045 7.9.84 2.985 1.24 6.26 1.24 9.865v36.615c-2.185.47-5.505 1.015-9.95 1.675-4.445.655-9.44.98-14.985.98-3.68 0-7.07-.365-10.094-1.055-3.065-.69-5.65-1.82-7.84-3.385-2.15-1.565-3.825-3.57-5.065-6.04-1.205-2.475-1.825-5.97-1.825-9.61 0-3.495.695-5.715 2.045-8.12 1.38-2.4 3.24-4.365 5.575-5.895 2.37-1.525 5.065-2.62 8.165-3.275 3.1-.655 6.345-.98 9.7-.98 1.565 0 3.205.11 4.955.29s3.575.51 5.54.985v-2.33c0-1.64-.18-3.205-.58-4.66a9.977 9.977 0 0 0-2.045-3.895c-.985-1.13-2.255-2.005-3.86-2.62-1.606-.62-3.65-1.09-6.09-1.09-3.28 0-6.27.4-9.005.87-2.735.475-4.995 1.02-6.71 1.64l-1.71-11.685c1.785-.62 4.445-1.235 7.875-1.855 3.425-.62 7.105-.945 11.045-.945zm-42.8-6.77c4.774 0 8.68-3.86 8.68-8.63 0-4.765-3.866-8.625-8.68-8.625-4.81 0-8.675 3.86-8.675 8.625 0 4.77 3.9 8.63 8.675 8.63zm7.18 70.425h-14.326v-61.44l14.325-2.255v63.695h.001zm-25.116 0c-23.365.11-23.365-18.855-23.365-21.875l-.04-71.045 14.255-2.26v70.61c0 1.715 0 12.56 9.15 12.595v11.975zm-46.335-31.445c0-6.155-1.35-11.285-3.974-14.85-2.625-3.605-6.305-5.385-11.01-5.385-4.7 0-8.386 1.78-11.006 5.385-2.625 3.6-3.904 8.695-3.904 14.85 0 6.225 1.315 10.405 3.94 14.01 2.625 3.64 6.305 5.425 11.01 5.425 4.7 0 8.385-1.82 11.01-5.425 2.624-3.64 3.934-7.785 3.934-14.01zm14.58-.035c0 4.805-.69 8.44-2.114 12.41-1.42 3.965-3.425 7.35-6.01 10.155-2.59 2.8-5.69 4.985-9.336 6.515-3.644 1.525-9.26 2.4-12.065 2.4-2.81-.035-8.385-.835-11.995-2.4-3.61-1.565-6.71-3.715-9.295-6.515-2.59-2.805-4.594-6.19-6.054-10.155-1.456-3.97-2.185-7.605-2.185-12.41s.654-9.43 2.114-13.36c1.46-3.93 3.5-7.28 6.125-10.08 2.625-2.805 5.76-4.955 9.33-6.48 3.61-1.53 7.585-2.255 11.885-2.255 4.305 0 8.275.76 11.92 2.255 3.65 1.525 6.786 3.675 9.336 6.48 2.584 2.8 4.59 6.15 6.05 10.08 1.53 3.93 2.295 8.555 2.295 13.36h-.001zm-107.284 0c0 5.965 1.31 12.59 3.935 15.355 2.625 2.77 6.014 4.15 10.175 4.15 2.26 0 4.41-.325 6.414-.945 2.005-.62 3.606-1.35 4.886-2.22v-35.34c-1.02-.22-5.286-1.095-9.41-1.2-5.175-.15-9.11 1.965-11.88 5.345-2.736 3.39-4.12 9.32-4.12 14.855zm39.625 28.095c0 9.72-2.48 16.815-7.476 21.33-4.99 4.51-12.61 6.77-22.89 6.77-3.755 0-11.555-.73-17.79-2.11l2.295-11.285c5.215 1.09 12.105 1.385 15.715 1.385 5.72 0 9.805-1.165 12.245-3.495 2.445-2.33 3.645-5.785 3.645-10.375v-2.33c-1.42.69-3.28 1.385-5.575 2.115-2.295.69-4.955 1.055-7.95 1.055-3.935 0-7.51-.62-10.75-1.86-3.245-1.235-6.055-3.055-8.35-5.46-2.295-2.4-4.12-5.42-5.395-9.025-1.275-3.605-1.935-10.045-1.935-14.775 0-4.44.695-10.01 2.046-13.725 1.384-3.71 3.35-6.915 6.014-9.57 2.626-2.655 5.835-4.695 9.59-6.19 3.755-1.49 8.16-2.435 12.935-2.435 4.635 0 8.9.58 13.055 1.275 4.155.69 7.69 1.415 10.57 2.215v56.49h.001z" fill="#5468FF"/>
    </symbol>
    <symbol id="coffee" viewBox="0 0 32 32">
      <path d="M29.984 15.548c-0.378-3.639-4.063-3.618-5.977-3.553 0.009-0.553 0.015-0.999 0.015-0.999l-22.027-0.007c0 0 0 3.014 0 3.089 0 4.281 2.445 7.984 6.011 9.809v1.068h10.019v-1.068c1-0.512 1.897-1.184 2.691-1.961 4.915-1.176 10.070-2.873 9.268-6.378zM22.25 20.066c1.123-1.725 1.786-3.775 1.786-5.988 0 0.017 0.001-0.029 0.002-0.116 1.785-0.059 3.755-0.237 4.201 1.54 0.448 1.955-2.817 3.547-5.989 4.564zM8.83 6.99c0 1-1.64 2.065-1.64 2.065s3.214-0.574 3.214-2.074-3.187-0.5-3.187-1.625 1.577-2.19 1.577-2.19-3.025 0.637-3.025 2.199 3.061 0.625 3.061 1.625zM13.83 7.99c0 1-1.64 2.065-1.64 2.065s3.214-0.574 3.214-2.074-3.187-0.5-3.187-1.625 1.577-2.19 1.577-2.19-3.026 0.637-3.026 2.199 3.062 0.625 3.062 1.625zM17.83 6.99c0 1-1.64 2.065-1.64 2.065s3.214-0.574 3.214-2.074-3.187-0.5-3.187-1.625 1.577-2.19 1.577-2.19-3.026 0.637-3.026 2.199 3.062 0.625 3.062 1.625zM1.933 25.928c0 1.381 4.925 2.5 11 2.5s11-1.119 11-2.5c0 0.029-22 0.029-22 0z"></path>
    </symbol>
  </defs>
</svg>
