<?xml version="1.0" encoding="UTF-8" standalone="no"?>
<!-- Created with Inkscape (http://www.inkscape.org/) -->
<svg
   xmlns:svg="http://www.w3.org/2000/svg"
   xmlns="http://www.w3.org/2000/svg"
   version="1.0"
   width="1800pt"
   height="600pt"
   id="svg2">
  <defs
     id="defs4" />
  <g
     id="layer1">
    <g
       transform="matrix(0.312578,0,0,0.552047,68.91378,101.167)"
       id="g1430">
      <path
         d="M -239.68598,11.66976 C -83.769572,61.669761 72.146958,111.66976 249.89166,111.66976 M 739.01965,11.66806 C 583.10324,61.668061 427.18682,111.66806 249.44201,111.66806 M 738.98917,11.67666 C 894.90559,-38.323341 1050.822,-88.32334 1228.5667,-88.32334 M 1717.6945,11.67836 C 1561.778,-38.321641 1405.8616,-88.32164 1228.1171,-88.32164 M 1717.9384,11.69986 C 1873.8548,61.699861 2029.7713,111.69986 2207.516,111.69986 M 2696.644,11.69816 C 2540.7276,61.698161 2384.811,111.69816 2207.0664,111.69816 M 2696.6118,11.70676 C 2852.5284,-38.293241 3008.4448,-88.29324 3186.1895,-88.29324 M 3675.3175,11.70846 C 3519.4012,-38.291541 3363.4846,-88.29154 3185.7398,-88.29154 M 3675.2268,11.68426 C 3831.1433,61.684261 3987.0597,111.68426 4164.8044,111.68426 M 4653.9325,11.68256 C 4498.016,61.682561 4342.0996,111.68256 4164.3548,111.68256 M 4653.9003,11.69116 C 4809.8168,-38.308841 4965.7332,-88.30884 5143.4781,-88.30884 M 5632.6061,11.69286 C 5476.6896,-38.307141 5320.7732,-88.30714 5143.0285,-88.30714 M 5632.5858,11.68536 C 5788.5023,61.685361 5944.4187,111.68536 6122.1634,111.68536 M 6611.2914,11.68366 C 6455.375,61.683661 6299.4584,111.68366 6121.7137,111.68366 M 6611.2609,11.69226 C 6767.1774,-38.307741 6923.0937,-88.30774 7100.8385,-88.30774"
         style="fill:none;fill-opacity:0.75;fill-rule:evenodd;stroke:#ff0000;stroke-width:14.44388485;stroke-linecap:butt;stroke-linejoin:miter;stroke-miterlimit:4;stroke-dasharray:none;stroke-opacity:1"
         id="path1360" />
      <g
         transform="translate(-224,-2)"
         id="g1384">
        <g
           transform="translate(6.14935,-66.0035)"
           id="g1321" />
      </g>
      <path
         d="M 83.02946,265.29446 C -48.25652,215.29446 -179.54227,165.29446 -329.20819,165.29446 M 83.01248,265.28696 C 214.29823,315.28696 345.58444,365.28696 495.25013,365.28696 M 907.10913,265.28526 C 775.82326,315.28526 644.53739,365.28526 494.87147,365.28526 M 907.08359,265.29386 C 1038.3695,215.29386 1169.6554,165.29386 1319.3212,165.29386 M 1731.1799,265.29556 C 1599.8941,215.29556 1468.6083,165.29556 1318.9425,165.29556 M 1731.1017,265.27136 C 1862.3876,315.27136 1993.6734,365.27136 2143.3396,365.27136 M 2555.1986,265.26966 C 2423.9127,315.26966 2292.6267,365.26966 2142.9608,365.26966 M 2555.1727,265.27826 C 2686.4588,215.27826 2817.7446,165.27826 2967.4107,165.27826 M 3379.2696,265.27996 C 3247.9838,215.27996 3116.6977,165.27996 2967.032,165.27996 M 3379.475,265.30146 C 3510.7608,315.30146 3642.0467,365.30146 3791.7127,365.30146 M 4203.5718,265.29976 C 4072.2858,315.29976 3941,365.29976 3791.334,365.29976 M 4203.5445,265.30836 C 4334.8305,215.30836 4466.1164,165.30836 4615.7824,165.30836 M 5027.6416,265.31006 C 4896.3558,215.31006 4765.0697,165.31006 4615.4038,165.31006 M 5027.565,265.28586 C 5158.8511,315.28586 5290.137,365.28586 5439.8028,365.28586 M 5851.6619,265.28416 C 5720.376,315.28416 5589.0902,365.28416 5439.4244,365.28416 M 5851.6349,265.29276 C 5982.9207,215.29276 6114.2066,165.29276 6263.8727,165.29276 M 6675.7317,265.29446 C 6544.4458,215.29446 6413.1598,165.29446 6263.4939,165.29446 M 6675.7147,265.28696 C 6807.0005,315.28696 6938.2864,365.28696 7087.9522,365.28696"
         style="fill:none;fill-opacity:0.75;fill-rule:evenodd;stroke:#ff8d00;stroke-width:14.44388485;stroke-linecap:butt;stroke-linejoin:miter;stroke-miterlimit:4;stroke-dasharray:none;stroke-opacity:1"
         id="path4058" />
      <path
         d="M 131.37271,518.88576 C 27.88381,568.88576 -75.60497,618.88576 -193.58245,618.88576 M 131.35133,518.89436 C 234.84023,468.89436 338.32901,418.89436 456.30638,418.89436 M 780.96286,518.89606 C 677.47397,468.89606 573.98518,418.89606 456.00793,418.89606 M 780.94947,518.88856 C 884.43826,568.88856 987.92737,618.88856 1105.9045,618.88856 M 1430.5608,518.88686 C 1327.072,568.88686 1223.5832,618.88686 1105.6059,618.88686 M 1430.5406,518.89546 C 1534.0294,468.89546 1637.5183,418.89546 1755.4955,418.89546 M 2080.152,518.89716 C 1976.6633,468.89716 1873.1744,418.89716 1755.197,418.89716 M 2080.0904,518.87296 C 2183.5792,568.87296 2287.0681,618.87296 2405.0456,618.87296 M 2729.702,518.87126 C 2626.2131,568.87126 2522.7243,618.87126 2404.747,618.87126 M 2729.6817,518.87986 C 2833.1707,468.87986 2936.6595,418.87986 3054.6369,418.87986 M 3379.2933,518.88156 C 3275.8045,468.88156 3172.3155,418.88156 3054.3384,418.88156 M 3379.4552,518.90306 C 3482.944,568.90306 3586.4329,618.90306 3704.4102,618.90306 M 4029.0668,518.90136 C 3925.5778,568.90136 3822.0892,618.90136 3704.1117,618.90136 M 4029.0454,518.90996 C 4132.5342,468.90996 4236.0231,418.90996 4354.0005,418.90996 M 4678.6572,518.91166 C 4575.1683,468.91166 4471.6793,418.91166 4353.7021,418.91166 M 4678.5968,518.88746 C 4782.0858,568.88746 4885.5747,618.88746 5003.5519,618.88746 M 5328.2084,518.88576 C 5224.7197,568.88576 5121.2308,618.88576 5003.2536,618.88576 M 5328.1872,518.89436 C 5431.676,468.89436 5535.1649,418.89436 5653.1422,418.89436 M 5977.7987,518.89606 C 5874.3099,468.89606 5770.821,418.89606 5652.8437,418.89606 M 5977.7853,518.88856 C 6081.2742,568.88856 6184.7631,618.88856 6302.7403,618.88856 M 6627.397,518.88686 C 6523.9081,568.88686 6420.4192,618.88686 6302.4419,618.88686 M 6627.3767,518.89546 C 6730.8656,468.89546 6834.3543,418.89546 6952.3318,418.89546 M 7276.9884,518.89716 C 7173.4993,468.89716 7070.0107,418.89716 6952.0333,418.89716"
         style="fill:none;fill-opacity:0.75;fill-rule:evenodd;stroke:#00a900;stroke-width:14.44388485;stroke-linecap:butt;stroke-linejoin:miter;stroke-miterlimit:4;stroke-dasharray:none;stroke-opacity:1"
         id="path5806" />
      <path
         d="M -371.47305,772.50466 C -296.77829,822.50466 -222.08342,872.50466 -136.93138,872.50466 M 97.39498,772.50296 C 22.70011,822.50296 -51.99465,872.50296 -137.14681,872.50296 M 97.37957,772.51156 C 172.07455,722.51156 246.7693,672.51156 331.92135,672.51156 M 566.24782,772.51326 C 491.55284,722.51326 416.85808,672.51326 331.70592,672.51326 M 566.20428,772.48906 C 640.89915,822.48906 715.59391,872.48906 800.74607,872.48906 M 1035.0725,772.48736 C 960.37757,822.48736 885.68291,872.48736 800.53064,872.48736 M 1035.057,772.49596 C 1109.7518,722.49596 1184.4466,672.49596 1269.5988,672.49596 M 1503.9249,772.49766 C 1429.2301,722.49766 1354.5353,672.49766 1269.3834,672.49766 M 1503.9153,772.49016 C 1578.6099,822.49016 1653.3049,872.49016 1738.4569,872.49016 M 1972.7833,772.48846 C 1898.0884,822.48846 1823.3935,872.48846 1738.2415,872.48846 M 1972.7687,772.49706 C 2047.4635,722.49706 2122.1584,672.49706 2207.3103,672.49706 M 2441.6368,772.49876 C 2366.9419,722.49876 2292.2472,672.49876 2207.095,672.49876 M 2441.5924,772.47456 C 2516.287,822.47456 2590.982,872.47456 2676.1341,872.47456 M 2910.4604,772.47286 C 2835.7656,822.47286 2761.0707,872.47286 2675.9186,872.47286 M 2910.4458,772.48146 C 2985.1406,722.48146 3059.8355,672.48146 3144.9878,672.48146 M 3379.3139,772.48316 C 3304.6191,722.48316 3229.9242,672.48316 3144.7722,672.48316 M 3379.4307,772.50466 C 3454.1255,822.50466 3528.8203,872.50466 3613.9726,872.50466 M 3848.2989,772.50296 C 3773.6041,822.50296 3698.9093,872.50296 3613.757,872.50296 M 3848.2834,772.51156 C 3922.9783,722.51156 3997.6731,672.51156 4082.8253,672.51156 M 4317.1518,772.51326 C 4242.4569,722.51326 4167.7619,672.51326 4082.6099,672.51326 M 4317.1081,772.48906 C 4391.8031,822.48906 4466.4979,872.48906 4551.6499,872.48906 M 4785.9763,772.48736 C 4711.2816,822.48736 4636.5866,872.48736 4551.4347,872.48736 M 4785.961,772.49596 C 4860.6557,722.49596 4935.3506,672.49596 5020.5027,672.49596 M 5254.829,772.49766 C 5180.1342,722.49766 5105.4394,672.49766 5020.2872,672.49766 M 5254.8194,772.49016 C 5329.5142,822.49016 5404.2092,872.49016 5489.3611,872.49016 M 5723.6875,772.48846 C 5648.9927,822.48846 5574.2978,872.48846 5489.1458,872.48846 M 5723.6729,772.49706 C 5798.3678,722.49706 5873.0625,672.49706 5958.2147,672.49706 M 6192.5411,772.49876 C 6117.8462,722.49876 6043.1515,672.49876 5957.9993,672.49876 M 6192.4965,772.47456 C 6267.1915,822.47456 6341.8859,872.47456 6427.038,872.47456 M 6661.3643,772.47286 C 6586.6699,822.47286 6511.9749,872.47286 6426.8229,872.47286 M 6661.3496,772.48146 C 6736.0446,722.48146 6810.7397,672.48146 6895.8916,672.48146 M 7130.218,772.48316 C 7055.523,722.48316 6980.8281,672.48316 6895.676,672.48316"
         style="fill:none;fill-opacity:0.75;fill-rule:evenodd;stroke:#0000da;stroke-width:14.44388485;stroke-linecap:butt;stroke-linejoin:miter;stroke-miterlimit:4;stroke-dasharray:none;stroke-opacity:1"
         id="path6681" />
      <path
         d="M -469.71749,1029.7291 C -431.39134,1079.7291 -393.06519,1129.7291 -349.37344,1129.7291 M -229.13996,1029.7274 C -267.46611,1079.7274 -305.79215,1129.7274 -349.48402,1129.7274 M -229.14784,1029.736 C -190.82169,979.73606 -152.49554,929.73606 -108.80378,929.73606 M 11.4297,1029.7377 C -26.89645,979.73776 -65.22249,929.73776 -108.91436,929.73776 M 11.40709,1029.7135 C 49.73324,1079.7135 88.05927,1129.7135 131.75114,1129.7135 M 251.98462,1029.7118 C 213.65847,1079.7118 175.33232,1129.7118 131.64056,1129.7118 M 251.97674,1029.7204 C 290.30289,979.72046 328.62904,929.72046 372.3208,929.72046 M 492.55428,1029.7221 C 454.22813,979.72216 415.90198,929.72216 372.21022,929.72216 M 492.54933,1029.7146 C 530.87548,1079.7146 569.20152,1129.7146 612.89339,1129.7146 M 733.12686,1029.7129 C 694.80071,1079.7129 656.47456,1129.7129 612.7828,1129.7129 M 733.1191,1029.7215 C 771.44525,979.72156 809.77129,929.72156 853.46316,929.72156 M 973.69647,1029.7232 C 935.37048,979.72326 897.04433,929.72326 853.35257,929.72326 M 973.67367,1029.699 C 1011.9998,1079.699 1050.326,1129.699 1094.0177,1129.699 M 1214.2512,1029.6973 C 1175.925,1079.6973 1137.5991,1129.6973 1093.9072,1129.6973 M 1214.2436,1029.7059 C 1252.5697,979.70596 1290.896,929.70596 1334.5876,929.70596 M 1454.8211,1029.7076 C 1416.4951,979.70766 1378.1688,929.70766 1334.4772,929.70766 M 1454.8075,1029.7291 C 1493.1335,1079.7291 1531.4597,1129.7291 1575.1513,1129.7291 M 1695.3848,1029.7274 C 1657.0588,1079.7274 1618.7326,1129.7274 1575.0408,1129.7274 M 1695.3769,1029.736 C 1733.7032,979.73606 1772.0292,929.73606 1815.7209,929.73606 M 1935.9546,1029.7377 C 1897.6284,979.73776 1859.3023,929.73776 1815.6104,929.73776 M 1935.9322,1029.7135 C 1974.2583,1079.7135 2012.5845,1129.7135 2056.2762,1129.7135 M 2176.5097,1029.7118 C 2138.1837,1079.7118 2099.8575,1129.7118 2056.1657,1129.7118 M 2176.5018,1029.7204 C 2214.828,979.72046 2253.1541,929.72046 2296.8459,929.72046 M 2417.0794,1029.7221 C 2378.7532,979.72216 2340.4271,929.72216 2296.7354,929.72216 M 2417.0744,1029.7146 C 2455.4005,1079.7146 2493.7267,1129.7146 2537.4185,1129.7146 M 2657.652,1029.7129 C 2619.3258,1079.7129 2580.9997,1129.7129 2537.3079,1129.7129 M 2657.6444,1029.7215 C 2695.9706,979.72156 2734.2967,929.72156 2777.9885,929.72156 M 2898.2219,1029.7232 C 2859.8958,979.72326 2821.5698,929.72326 2777.8779,929.72326 M 2898.1992,1029.699 C 2936.5251,1079.699 2974.8514,1129.699 3018.5432,1129.699 M 3138.7768,1029.6973 C 3100.4506,1079.6973 3062.1245,1129.6973 3018.4327,1129.6973 M 3138.7691,1029.7059 C 3177.0954,979.70596 3215.4214,929.70596 3259.1133,929.70596 M 3379.3468,1029.7076 C 3341.0206,979.70766 3302.6945,929.70766 3259.0027,929.70766 M 3379.4066,1029.7291 C 3417.7328,1079.7291 3456.0588,1129.7291 3499.7507,1129.7291 M 3619.9842,1029.7274 C 3581.6581,1079.7274 3543.3319,1129.7274 3499.6401,1129.7274 M 3619.9763,1029.736 C 3658.3024,979.73606 3696.6286,929.73606 3740.3203,929.73606 M 3860.5539,1029.7377 C 3822.2276,979.73776 3783.9016,929.73776 3740.2097,929.73776 M 3860.5315,1029.7135 C 3898.8577,1079.7135 3937.1838,1129.7135 3980.8756,1129.7135 M 4101.1091,1029.7118 C 4062.783,1079.7118 4024.4568,1129.7118 3980.7651,1129.7118 M 4101.1012,1029.7204 C 4139.4273,979.72046 4177.7534,929.72046 4221.4452,929.72046 M 4341.6787,1029.7221 C 4303.3526,979.72216 4265.0264,929.72216 4221.3347,929.72216 M 4341.6738,1029.7146 C 4379.9998,1079.7146 4418.3261,1129.7146 4462.0178,1129.7146 M 4582.2513,1029.7129 C 4543.9251,1079.7129 4505.599,1129.7129 4461.9073,1129.7129 M 4582.2438,1029.7215 C 4620.5699,979.72156 4658.8959,929.72156 4702.5878,929.72156 M 4822.8214,1029.7232 C 4784.4951,979.72326 4746.1691,929.72326 4702.4773,929.72326 M 4822.7986,1029.699 C 4861.1247,1079.699 4899.4505,1129.699 4943.1423,1129.699 M 5063.3758,1029.6973 C 5025.05,1079.6973 4986.7238,1129.6973 4943.032,1129.6973 M 5063.3683,1029.7059 C 5101.6945,979.70596 5140.0208,929.70596 5183.7124,929.70596 M 5303.946,1029.7076 C 5265.6197,979.70766 5227.2936,929.70766 5183.6018,929.70766 M 5303.9325,1029.7291 C 5342.2584,1079.7291 5380.5847,1129.7291 5424.2763,1129.7291 M 5544.5098,1029.7274 C 5506.1838,1079.7274 5467.8578,1129.7274 5424.1662,1129.7274 M 5544.5019,1029.736 C 5582.8278,979.73606 5621.1547,929.73606 5664.8463,929.73606 M 5785.0795,1029.7377 C 5746.7533,979.73776 5708.4274,929.73776 5664.7354,929.73776 M 5785.0568,1029.7135 C 5823.3837,1079.7135 5861.7097,1129.7135 5905.4012,1129.7135 M 6025.6352,1029.7118 C 5987.3084,1079.7118 5948.9823,1129.7118 5905.2904,1129.7118 M 6025.6271,1029.7204 C 6063.9526,979.72046 6102.2794,929.72046 6145.9709,929.72046 M 6266.2044,1029.7221 C 6227.8782,979.72216 6189.5521,929.72216 6145.8606,929.72216 M 6266.199,1029.7146 C 6304.5251,1079.7146 6342.8518,1129.7146 6386.5438,1129.7146 M 6506.7768,1029.7129 C 6468.4507,1079.7129 6430.1251,1129.7129 6386.4331,1129.7129 M 6506.7698,1029.7215 C 6545.096,979.72156 6583.4216,929.72156 6627.1136,929.72156 M 6747.3472,1029.7232 C 6709.0205,979.72326 6670.6948,929.72326 6627.0028,929.72326 M 6747.3243,1029.699 C 6785.6503,1079.699 6823.9762,1129.699 6867.6686,1129.699 M 6987.9014,1029.6973 C 6949.5754,1079.6973 6911.2495,1129.6973 6867.5577,1129.6973 M 6987.895,1029.7059 C 7026.2203,979.70596 7064.5462,929.70596 7108.2379,929.70596 M 7228.4706,1029.7076 C 7190.1454,979.70766 7151.8195,929.70766 7108.1284,929.70766"
         style="fill:none;fill-opacity:0.75;fill-rule:evenodd;stroke:#dd00da;stroke-width:14.44388485;stroke-linecap:butt;stroke-linejoin:miter;stroke-miterlimit:4;stroke-dasharray:none;stroke-opacity:1"
         id="path7558" />
    </g>
  </g>
</svg>
